<?xml version="1.0" standalone="no"?>
<!DOCTYPE svg PUBLIC "-//W3C//DTD SVG 1.1//EN" "http://www.w3.org/Graphics/SVG/1.1/DTD/svg11.dtd" >
<!--
2013-9-30: Created.
-->
<svg>
<metadata>
Created by iconfont
</metadata>
<defs>

<font id="iconfont" horiz-adv-x="1024" >
  <font-face
    font-family="iconfont"
    font-weight="500"
    font-stretch="normal"
    units-per-em="1024"
    ascent="896"
    descent="-128"
  />
    <missing-glyph />
    
    <glyph glyph-name="x" unicode="x" horiz-adv-x="1001"
d="M281 543q-27 -1 -53 -1h-83q-18 0 -36.5 -6t-32.5 -18.5t-23 -32t-9 -45.5v-76h912v41q0 16 -0.5 30t-0.5 18q0 13 -5 29t-17 29.5t-31.5 22.5t-49.5 9h-133v-97h-438v97zM955 310v-52q0 -23 0.5 -52t0.5 -58t-10.5 -47.5t-26 -30t-33 -16t-31.5 -4.5q-14 -1 -29.5 -0.5
t-29.5 0.5h-32l-45 128h-439l-44 -128h-29h-34q-20 0 -45 1q-25 0 -41 9.5t-25.5 23t-13.5 29.5t-4 30v167h911zM163 247q-12 0 -21 -8.5t-9 -21.5t9 -21.5t21 -8.5q13 0 22 8.5t9 21.5t-9 21.5t-22 8.5zM316 123q-8 -26 -14 -48q-5 -19 -10.5 -37t-7.5 -25t-3 -15t1 -14.5
t9.5 -10.5t21.5 -4h37h67h81h80h64h36q23 0 34 12t2 38q-5 13 -9.5 30.5t-9.5 34.5q-5 19 -11 39h-368zM336 498v228q0 11 2.5 23t10 21.5t20.5 15.5t34 6h188q31 0 51.5 -14.5t20.5 -52.5v-227h-327z" />
    

    
    <glyph glyph-name="30bess" unicode="&#58902;" d="M646.4 608h-268.8l-137.6-137.6v-310.4h544v310.4l-137.6 137.6zM390.4 576h243.2l96-96h-435.2l96 96zM272 192v256h480v-256h-480zM704 320h-384c-9.6 0-16-6.4-16-16s6.4-16 16-16h384c9.6 0 16 6.4 16 16s-6.4 16-16 16z"  horiz-adv-x="1024" />

    
    <glyph glyph-name="30gateway" unicode="&#58905;" d="M704 345.6v288c0 9.6-6.4 16-16 16s-16-9.6-16-16v-288h-432v-224h544v224h-80zM752 153.6h-480v160h480v-160z"  horiz-adv-x="1024" />

    
    <glyph glyph-name="30airconditioning" unicode="&#58891;" d="M704 656h-384c-44.8 0-80-35.2-80-80v-384c0-44.8 35.2-80 80-80h384c44.8 0 80 35.2 80 80v384c0 44.8-35.2 80-80 80zM320 624h384c25.6 0 48-22.4 48-48v-304h-480v304c0 25.6 22.4 48 48 48zM704 144h-384c-25.6 0-48 22.4-48 48v48h480v-48c0-25.6-22.4-48-48-48zM608 528h64c9.6 0 16 6.4 16 16s-6.4 16-16 16h-64c-9.6 0-16-6.4-16-16s6.4-16 16-16z"  horiz-adv-x="1024" />

    
    <glyph glyph-name="30door" unicode="&#58892;" d="M768 688h-518.4s-3.2 0-3.2-3.2h-3.2l-3.2-3.2v-528s0-3.2 3.2-3.2h3.2s3.2 0 3.2-3.2h6.4l384-64h3.2c3.2 0 6.4 0 9.6 3.2s6.4 6.4 6.4 12.8v48h108.8c9.6 0 16 6.4 16 16v508.8c0 9.6-6.4 16-16 16zM624 115.2l-352 57.6v480l352-57.6v-480zM752 176h-96v432c0 6.4-6.4 16-12.8 16l-192 32h304v-480zM544 537.6c-12.8 0-25.6-9.6-25.6-25.6v-96c0-12.8 9.6-25.6 25.6-25.6s25.6 9.6 25.6 25.6v96c0 12.8-12.8 25.6-25.6 25.6z"  horiz-adv-x="1024" />

    
    <glyph glyph-name="30powercopy" unicode="&#58894;" d="M646.4 624c-6.4 3.2-16 3.2-22.4-6.4-3.2-6.4-3.2-16 6.4-22.4 73.6-41.6 121.6-121.6 121.6-208 0-131.2-108.8-240-240-240s-240 108.8-240 240c0 86.4 44.8 166.4 121.6 208 6.4 3.2 9.6 12.8 6.4 22.4-3.2 6.4-12.8 9.6-22.4 6.4-83.2-48-134.4-137.6-134.4-236.8 0-150.4 121.6-272 272-272s272 121.6 272 272c-3.2 99.2-54.4 188.8-140.8 236.8zM512 348.8c12.8 0 25.6 9.6 25.6 25.6v256c0 12.8-9.6 25.6-25.6 25.6s-25.6-16-25.6-28.8v-256c0-12.8 12.8-22.4 25.6-22.4z"  horiz-adv-x="1024" />

    
    <glyph glyph-name="30smoke" unicode="&#58896;" d="M393.6 521.6c44.8 0 76.8 25.6 102.4 51.2 28.8 25.6 54.4 51.2 102.4 51.2 89.6 0 156.8-96 156.8-96 6.4-6.4 16-9.6 22.4-3.2 6.4 6.4 9.6 16 3.2 22.4-3.2 3.2-76.8 108.8-182.4 108.8-57.6 0-92.8-32-121.6-57.6-25.6-22.4-48-44.8-83.2-44.8-73.6 0-121.6 92.8-121.6 92.8-6.4 9.6-16 12.8-22.4 6.4-9.6-3.2-12.8-12.8-6.4-19.2 0-6.4 57.6-112 150.4-112zM598.4 451.2c-57.6 0-92.8-32-121.6-57.6-25.6-22.4-48-44.8-83.2-44.8-73.6 0-121.6 92.8-121.6 92.8-6.4 9.6-16 12.8-22.4 6.4-6.4-3.2-9.6-12.8-6.4-22.4 3.2-3.2 57.6-112 150.4-112 44.8 0 76.8 25.6 102.4 51.2 28.8 25.6 54.4 51.2 102.4 51.2 89.6 0 156.8-96 156.8-96 6.4-6.4 16-9.6 22.4-3.2 6.4 6.4 9.6 16 3.2 22.4-3.2 6.4-76.8 112-182.4 112zM598.4 246.4c-57.6 0-92.8-32-121.6-57.6-25.6-22.4-48-44.8-83.2-44.8-73.6 0-121.6 92.8-121.6 92.8-3.2 6.4-12.8 9.6-22.4 6.4-6.4-3.2-9.6-12.8-6.4-22.4 3.2-3.2 57.6-112 150.4-112 44.8 0 76.8 25.6 102.4 51.2 28.8 25.6 54.4 51.2 102.4 51.2 89.6 0 156.8-96 156.8-96 6.4-6.4 16-9.6 22.4-3.2 6.4 6.4 9.6 16 3.2 22.4-3.2 6.4-76.8 112-182.4 112z"  horiz-adv-x="1024" />

    
    <glyph glyph-name="30water" unicode="&#58897;" d="M521.6 652.8c-6.4 3.2-12.8 3.2-19.2 0-9.6-6.4-230.4-169.6-230.4-300.8 0-131.2 108.8-240 240-240s240 108.8 240 240-220.8 294.4-230.4 300.8zM512 144c-115.2 0-208 92.8-208 208 0 99.2 166.4 236.8 208 268.8 41.6-32 208-166.4 208-268.8 0-115.2-92.8-208-208-208zM640 409.6c-12.8 0-25.6-9.6-25.6-25.6 0-54.4-12.8-92.8-38.4-115.2-28.8-25.6-64-22.4-64-22.4-12.8 0-25.6-9.6-25.6-22.4 0-12.8 6.4-25.6 22.4-25.6h9.6c19.2 0 57.6 3.2 92.8 35.2 35.2 32 54.4 83.2 54.4 150.4 0 12.8-12.8 25.6-25.6 25.6z"  horiz-adv-x="1024" />

    
    <glyph glyph-name="30battery" unicode="&#58898;" d="M768 560h-41.6v80c0 9.6-6.4 16-16 16h-454.4c-9.6 0-16-6.4-16-16v-512c0-9.6 6.4-16 16-16h454.4c9.6 0 16 6.4 16 16v80h41.6c9.6 0 16 9.6 16 16v320c0 9.6-6.4 16-16 16zM752 240h-41.6c-9.6 0-16-6.4-16-16v-80h-422.4v480h422.4v-80c0-9.6 6.4-16 16-16h41.6v-288zM528 496c-6.4 6.4-16 9.6-25.6 6.4-9.6-3.2-16-12.8-16-22.4v-134.4l-86.4 86.4c-9.6 9.6-25.6 9.6-35.2 0s-9.6-25.6 0-35.2l128-128c3.2-3.2 9.6-6.4 16-6.4 3.2 0 6.4 0 9.6 3.2 9.6 3.2 16 12.8 16 22.4v134.4l86.4-86.4c9.6-9.6 25.6-9.6 35.2 0s9.6 25.6 0 35.2l-128 124.8z"  horiz-adv-x="1024" />

    
    <glyph glyph-name="30power" unicode="&#58899;" d="M809.6 377.6l-288 272c-6.4 6.4-16 6.4-22.4 0l-288-272c-3.2-3.2-6.4-12.8-3.2-16 3.2-6.4 9.6-9.6 16-9.6h80v-224c0-9.6 6.4-16 16-16h384c9.6 0 16 6.4 16 16v240c0 9.6-6.4 16-16 16s-16-6.4-16-16v-224h-352v224c0 9.6-6.4 16-16 16h-54.4l246.4 233.6 278.4-262.4c6.4-6.4 16-6.4 22.4 0s3.2 16-3.2 22.4zM470.4 208c3.2-3.2 9.6-6.4 16-6.4s12.8 3.2 16 6.4l96 96c6.4 6.4 9.6 16 6.4 25.6s-12.8 16-22.4 16h-86.4l54.4 54.4c9.6 9.6 9.6 25.6 0 35.2s-25.6 9.6-35.2 0l-96-96c-6.4-6.4-9.6-16-6.4-25.6 3.2-9.6 12.8-16 22.4-16h86.4l-54.4-54.4c-6.4-12.8-6.4-25.6 3.2-35.2z"  horiz-adv-x="1024" />

    
    <glyph glyph-name="icon_navbar_fold" unicode="&#59094;" d="M0 822.857143c0 40.374857 32.548571 73.142857 73.142857 73.142857h1024c40.374857 0 73.142857-32.475429 73.142857-73.142857 0-40.374857-32.548571-73.142857-73.142857-73.142857H73.142857c-40.374857 0-73.142857 32.475429-73.142857 73.142857z m0-438.857143c0 40.374857 32.548571 73.142857 73.142857 73.142857h1024c40.374857 0 73.142857-32.475429 73.142857-73.142857 0-40.374857-32.548571-73.142857-73.142857-73.142857H73.142857c-40.374857 0-73.142857 32.475429-73.142857 73.142857z m0-438.857143c0 40.374857 32.548571 73.142857 73.142857 73.142857h1024c40.374857 0 73.142857-32.475429 73.142857-73.142857 0-40.374857-32.548571-73.142857-73.142857-73.142857H73.142857c-40.374857 0-73.142857 32.475429-73.142857 73.142857z"  horiz-adv-x="1170" />

    
    <glyph glyph-name="icon_navbar_alarm" unicode="&#59095;" d="M502.857143-128c68.608 0 124.196571 55.588571 124.196571 124.196571H378.660571c0-68.608 55.588571-124.196571 124.196572-124.196571z m336.969143 299.666286v288.182857c0 154.331429-104.448 283.062857-246.052572 322.998857v22.235429a90.989714 90.989714 0 0 1-181.833143 0v-22.235429C270.262857 742.912 165.814857 614.180571 165.814857 459.849143v-288.182857a72.118857 72.118857 0 0 1-56.100571-69.705143 73.142857 73.142857 0 0 1 73.142857-73.142857h640a73.142857 73.142857 0 0 1 73.142857 73.142857 72.118857 72.118857 0 0 1-56.173714 69.705143z"  horiz-adv-x="1024" />

    
    <glyph glyph-name="icon_navbar_notice" unicode="&#59096;" d="M1109.333333 896H85.333333C38.229333 896 0 861.525333 0 819.114667v-692.224c0-42.496 38.229333-76.885333 85.333333-76.885334h106.666667L159.488-128l325.888 178.005333H1109.333333c47.104 0 85.333333 34.389333 85.333334 76.8V819.2C1194.666667 861.525333 1156.437333 896 1109.333333 896"  horiz-adv-x="1194" />

    
    <glyph glyph-name="icon_navbar_logout" unicode="&#59097;" d="M208.677736 848.748319A208.822559 208.822559 0 0 1 0.001463 639.560046v-459.263344a208.456845 208.456845 0 0 1 208.676273-209.188272h172.104897a36.571376 36.571376 0 1 1 0 73.142752H208.677736A135.314092 135.314092 0 0 0 73.144216 180.369845v459.336487c0 75.19075 60.708485 136.04552 135.53352 136.04552h172.104897a36.571376 36.571376 0 1 1 0 73.142752H208.677736z m436.29652-271.213327H275.383927a35.986234 35.986234 0 0 1-35.986235-35.839949v-263.460195c0-19.748543 16.383977-35.839949 35.986235-35.839949h369.590329v-299.373286c0-19.748543 10.605699-24.137108 24.429679-8.923416l482.595882 531.747812L672.18336 888.684262c-14.994264 13.311981-27.209104 7.899417-27.209104-11.775983v-299.373287z"  horiz-adv-x="1170" />

    
    <glyph glyph-name="icon_navbar_zoomin" unicode="&#59098;" d="M950.857143-128H658.285714v146.285714h219.428572V237.714286h146.285714v-365.714286h-73.142857z m0 1024H658.285714v-146.285714h219.428572v-219.428572h146.285714V896h-73.142857zM73.142857-128h292.571429v146.285714H146.285714V237.714286H0v-365.714286h73.142857zM73.142857 896h292.571429v-146.285714H146.285714v-219.428572H0V896h73.142857z"  horiz-adv-x="1024" />

    
    <glyph glyph-name="logo_d" unicode="&#59099;" d="M1494.528 896h-461.12l-197.632-373.632h500.608l-224-211.712-302.976-286.464L704-75.52h474.304l289.856 186.88 197.632 535.488zM448 310.656L1001.216 896H355.712L0-75.456h658.752l237.184 386.112z"  horiz-adv-x="1665" />

    
    <glyph glyph-name="icon_notice" unicode="&#59100;" d="M571.733 797.867c-29.867 12.8-64 8.533-85.333-12.8l-238.933-209.067h-102.4c-42.667 0-81.067-38.4-81.067-81.067v-221.867c0-42.667 38.4-81.067 81.067-81.067h102.4l238.933-209.067c17.067-12.8 34.133-21.333 51.2-21.333 12.8 0 21.333 4.267 34.133 8.533 29.867 12.8 46.933 42.667 46.933 72.533v678.4c0 34.133-17.067 64-46.933 76.8zM576 46.933c0-17.067-8.533-29.867-21.333-34.133-12.8-4.267-29.867-4.267-38.4 4.267l-247.467 217.6h-123.733c-21.333 0-38.4 17.067-38.4 38.4v221.867c0 21.333 17.067 38.4 38.4 38.4h119.467l247.467 217.6c12.8 8.533 25.6 12.8 38.4 4.267 12.8-4.267 21.333-17.067 21.333-34.133v-674.133zM695.467 571.733c-8.533 8.533-21.333 4.267-29.867-4.267-8.533-8.533-4.267-21.333 4.267-29.867 0 0 76.8-59.733 76.8-153.6s-76.8-153.6-76.8-153.6c-8.533-8.533-12.8-21.333-4.267-29.867 4.267-4.267 8.533-8.533 17.067-8.533 4.267 0 8.533 0 12.8 4.267 4.267 4.267 93.867 72.533 93.867 187.733s-89.6 183.467-93.867 187.733zM823.467 699.733c-8.533 8.533-21.333 8.533-29.867 0-8.533-8.533-8.533-21.333 0-29.867 0 0 119.467-110.933 119.467-281.6 0-170.667-119.467-281.6-119.467-281.6-8.533-8.533-8.533-21.333 0-29.867 4.267-4.267 8.533-8.533 17.067-8.533 4.267 0 8.533 0 12.8 4.267 4.267 4.267 136.533 123.733 136.533 315.733s-128 302.933-136.533 311.467z"  horiz-adv-x="1024" />

    
    <glyph glyph-name="icon_statistics" unicode="&#59101;" d="M853.333 776.533c-59.733 0-106.667-46.933-106.667-106.667 0-38.4 21.333-72.533 51.2-89.6l-132.267-209.067c-12.8 4.267-25.6 8.533-38.4 8.533-21.333 0-42.667-8.533-59.733-17.067l-81.067 81.067c12.8 17.067 17.067 38.4 17.067 59.733 0 59.733-46.933 106.667-106.667 106.667s-106.667-55.467-106.667-110.933c0-38.4 21.333-72.533 51.2-89.6l-132.267-209.067c-12.8 4.267-25.6 8.533-38.4 8.533-59.733 0-106.667-46.933-106.667-106.667s46.933-106.667 106.667-106.667 106.667 46.933 106.667 106.667c0 29.867-12.8 55.467-29.867 76.8l136.533 213.333h17.067c21.333 0 42.667 8.533 59.733 17.067l81.067-81.067c-12.8-17.067-17.067-38.4-17.067-59.733 0-59.733 46.933-106.667 106.667-106.667s106.667 46.933 106.667 106.667c0 29.867-12.8 55.467-29.867 76.8l136.533 217.6h17.067c59.733 0 106.667 46.933 106.667 106.667s-55.467 106.667-115.2 106.667zM170.667 34.133c-34.133 0-64 29.867-64 64s29.867 64 64 64 64-29.867 64-64-29.867-64-64-64zM332.8 499.2c0 34.133 29.867 64 64 64s64-29.867 64-64-29.867-64-64-64-64 25.6-64 64zM627.2 204.8c-34.133 0-64 29.867-64 64s29.867 64 64 64 64-29.867 64-64-29.867-64-64-64zM853.333 605.867c-34.133 0-64 29.867-64 64s29.867 64 64 64 64-29.867 64-64-29.867-64-64-64z"  horiz-adv-x="1024" />

    
    <glyph glyph-name="icon_site" unicode="&#59102;" d="M913.067 234.667c-12.8 4.267-21.333 0-29.867-12.8-17.067-38.4-38.4-68.267-64-98.133-12.8 4.267-29.867 8.533-34.133 12.8 0 4.267 4.267 17.067 4.267 25.6 4.267 17.067 12.8 38.4 4.267 55.467-4.267 4.267-8.533 12.8-25.6 17.067-42.667 12.8-115.2-4.267-140.8-68.267-25.6-64 0-102.4 0-106.667 4.267-4.267 12.8-8.533 17.067-8.533 4.267 0 8.533 0 12.8 4.267 8.533 4.267 12.8 21.333 8.533 29.867 0 0-12.8 25.6 0 64 17.067 38.4 59.733 51.2 85.333 46.933 0-4.267-4.267-12.8-4.267-21.333-4.267-17.067-12.8-38.4-4.267-55.467 8.533-17.067 21.333-25.6 38.4-34.133-72.533-68.267-170.667-106.667-273.067-106.667 8.533 8.533 17.067 21.333 17.067 34.133 4.267 25.6-12.8 38.4-17.067 42.667-4.267 4.267-8.533 4.267-8.533 17.067-4.267 34.133-12.8 59.733-21.333 89.6-4.267 8.533-4.267 17.067-8.533 25.6-8.533 25.6-4.267 51.2 0 76.8 0 12.8 4.267 21.333 4.267 29.867 0 4.267 12.8 17.067 17.067 21.333 12.8 12.8 29.867 34.133 38.4 55.467 12.8 46.933-25.6 93.867-68.267 110.933-17.067 8.533-42.667 4.267-64 0-25.6-4.267-51.2-8.533-81.067 0-46.933 25.6-72.533 55.467-72.533 55.467-4.267 12.8-21.333 12.8-29.867 4.267-8.533-4.267-8.533-17.067-4.267-29.867 0 0 34.133-42.667 93.867-64 38.4-12.8 72.533-4.267 98.133 0 17.067 4.267 34.133 4.267 42.667 4.267 21.333-8.533 51.2-34.133 42.667-59.733-4.267-12.8-17.067-25.6-25.6-38.4-17.067-17.067-29.867-29.867-29.867-51.2 0-8.533 0-17.067-4.267-25.6-4.267-25.6-8.533-59.733 4.267-93.867 4.267-8.533 4.267-17.067 8.533-25.6 8.533-29.867 17.067-51.2 17.067-81.067 4.267-29.867 17.067-42.667 25.6-46.933 0 0 4.267 0 4.267-4.267s0-4.267-8.533-8.533c-17.067-12.8-59.733-8.533-76.8-4.267-8.533 4.267-17.067 0-21.333-4.267-17.067 4.267-29.867 12.8-42.667 17.067 4.267 17.067 4.267 42.667-8.533 64 0 0 4.267 8.533 8.533 8.533 4.267 8.533 12.8 12.8 21.333 25.6 21.333 34.133-12.8 64-38.4 89.6l-21.333 21.333c-29.867 38.4-98.133 12.8-110.933 4.267-12.8-4.267-17.067-17.067-12.8-29.867 4.267-12.8 17.067-17.067 29.867-12.8 21.333 8.533 55.467 12.8 59.733 4.267l25.6-25.6c8.533-8.533 29.867-29.867 29.867-34.133-4.267-8.533-8.533-12.8-17.067-17.067-12.8-12.8-34.133-34.133-12.8-64 8.533-4.267 8.533-12.8 8.533-21.333-115.2 72.533-192 200.533-192 345.6 0 221.867 183.467 405.333 405.333 405.333 123.733 0 243.2-59.733 320-153.6h-8.533c-4.267 0-8.533 0-17.067 8.533-12.8 8.533-29.867 25.6-68.267 21.333-42.667-4.267-46.933-34.133-46.933-51.2v-8.533h-4.267c-21.333 0-38.4 17.067-55.467 29.867-21.333 17.067-38.4 29.867-64 25.6-21.333-4.267-29.867-12.8-34.133-21.333-4.267-4.267-4.267-8.533-17.067-4.267-21.333 0-55.467 29.867-68.267 51.2-8.533 8.533-21.333 8.533-29.867 4.267-12.8-12.8-17.067-25.6-8.533-38.4 4.267-8.533 51.2-64 102.4-64 29.867 0 42.667 8.533 51.2 21.333l8.533 8.533c4.267 0 21.333-12.8 29.867-17.067 21.333-17.067 46.933-38.4 81.067-38.4h4.267c42.667 0 42.667 34.133 46.933 46.933v8.533h8.533c21.333 0 25.6-4.267 38.4-12.8 8.533-8.533 25.6-21.333 51.2-17.067l29.867 4.267c0-4.267 4.267-4.267 4.267-8.533 4.267-8.533 17.067-12.8 29.867-8.533 8.533 4.267 12.8 17.067 8.533 29.867-81.067 136.533-230.4 226.133-388.267 226.133-251.733-0-452.267-200.533-452.267-448s200.533-448 448-448c179.2 0 341.333 106.667 409.6 268.8 4.267 12.8 0 21.333-8.533 29.867zM802.133 469.333c0-42.667 34.133-76.8 76.8-76.8s76.8 34.133 76.8 76.8-34.133 76.8-76.8 76.8c-38.4 0-76.8-34.133-76.8-76.8zM917.333 469.333c0-21.333-17.067-34.133-34.133-34.133-21.333 0-34.133 17.067-34.133 34.133s17.067 34.133 34.133 34.133 34.133-12.8 34.133-34.133zM896 375.467c-34.133 0-64-29.867-64-64s29.867-64 64-64 64 29.867 64 64-29.867 64-64 64zM896 290.133c-12.8 0-21.333 8.533-21.333 21.333s8.533 21.333 21.333 21.333 21.333-8.533 21.333-21.333-8.533-21.333-21.333-21.333z"  horiz-adv-x="1024" />

    
    <glyph glyph-name="icon_alarm" unicode="&#59103;" d="M797.867 226.133v238.933c0 119.467-72.533 221.867-174.933 260.267-4.267 55.467-51.2 102.4-110.933 102.4s-106.667-42.667-110.933-98.133c-102.4-42.667-174.933-145.067-174.933-264.533v-238.933c-46.933-12.8-81.067-55.467-76.8-106.667 4.267-55.467 46.933-98.133 102.4-98.133h149.333c12.8-46.933 55.467-85.333 106.667-85.333s98.133 38.4 106.667 85.333h149.333c55.467 0 102.4 42.667 102.4 98.133 12.8 51.2-21.333 93.867-68.267 106.667zM512 789.333c29.867 0 55.467-21.333 64-46.933-17.067 4.267-34.133 4.267-51.2 4.267h-25.6c-17.067 0-34.133 0-51.2-4.267 8.533 25.6 34.133 46.933 64 46.933zM512-21.333c-29.867 0-51.2 17.067-64 42.667h123.733c-8.533-25.6-29.867-42.667-59.733-42.667zM772.267 64h-520.533c-34.133 0-59.733 25.6-59.733 55.467s17.067 59.733 46.933 64c17.067 4.267 29.867 17.067 29.867 38.4v243.2c0 132.267 102.4 238.933 226.133 238.933h25.6c123.733 0 226.133-106.667 226.133-238.933v-243.2c0-17.067 12.8-34.133 29.867-38.4 29.867-4.267 51.2-34.133 46.933-64 8.533-29.867-21.333-55.467-51.2-55.467zM456.533 631.467c-46.933 0-136.533-29.867-136.533-136.533v-226.133c0-12.8 8.533-21.333 21.333-21.333s21.333 8.533 21.333 21.333v230.4c0 85.333 85.333 93.867 93.867 93.867 12.8 0 21.333 8.533 21.333 21.333 0 8.533-12.8 17.067-21.333 17.067z"  horiz-adv-x="1024" />

    
    <glyph glyph-name="icon_user" unicode="&#59104;" d="M960-38.4c-34.133 166.4-166.4 298.667-328.533 341.333 93.867 42.667 162.133 140.8 162.133 251.733 0 153.6-128 277.333-281.6 277.333s-281.6-123.733-281.6-277.333c0-110.933 68.267-204.8 162.133-251.733-162.133-42.667-294.4-174.933-328.533-341.333-4.267-12.8 4.267-21.333 17.067-25.6 12.8-4.267 21.333 4.267 25.6 17.067 38.4 187.733 209.067 324.267 405.333 324.267s366.933-136.533 405.333-324.267c0-8.533 12.8-17.067 21.333-17.067h4.267c12.8 4.267 17.067 12.8 17.067 25.6zM273.067 554.667c0 128 106.667 234.667 238.933 234.667s238.933-106.667 238.933-234.667-106.667-234.667-238.933-234.667-238.933 106.667-238.933 234.667z"  horiz-adv-x="1024" />

    
    <glyph glyph-name="logo" unicode="&#59105;" d="M2931.904 795.648L2918.784 895.296H2022.848l-355.712-971.52h935.424l39.552 99.648h-513.92l131.84 361.216h513.792l39.552 99.648H2299.52l105.408 311.36h526.976z m3438.72 0l39.552 99.648H5474.752l-355.776-971.52H6054.4l39.552 99.648h-513.856l131.776 361.216h513.856l39.488 99.648H5738.24l118.528 311.36h513.856zM4315.328 895.296h-421.632l-329.344-311.36L3458.944 895.296h-421.632l197.632-610.304-131.712-361.152h421.568l131.776 361.152L4315.328 895.36z m-2753.6 0h-461.184L903.04 521.6h500.672l-224-211.776-303.04-286.464-105.408-99.584H1245.504l289.92 186.816 197.568 535.552L1561.728 895.296zM494.528 309.888L1047.872 895.36H402.304L46.592-76.224h658.752l237.184 386.112h-448z m4769.408 485.76l39.488 99.648H4512.96l-224-224.192-276.672-747.264h935.424l39.552 99.584h-513.856l131.776 361.216h513.792l39.552 99.648h-513.856l105.408 311.36h513.856z"  horiz-adv-x="6464" />

    
    <glyph glyph-name="icon_navbar_zoomout" unicode="&#59106;" d="M804.571429 91.428571h219.428571V237.714286H658.285714v-365.714286h146.285715v219.428571z m0 585.142858h219.428571v-146.285715H658.285714V896h146.285715v-219.428571z m-585.142858-585.142858H0V237.714286h365.714286v-365.714286H219.428571v219.428571z m0 585.142858H0v-146.285715h365.714286V896H219.428571v-219.428571z"  horiz-adv-x="1024" />

    
    <glyph glyph-name="logo1" unicode="&#59107;" d="M1028.571429 871.606857l-181.76-525.604571h479.853714l19.090286 55.113143h-264.411429l67.401143 194.889142h264.411428l19.053715 55.113143h-264.411429l57.197714 165.376h264.411429l-7.314286 55.113143h-453.485714z m1757.184 0l-181.796572-525.604571h479.890286l19.090286 55.113143h-264.448l67.401142 194.889142h264.448l19.053715 55.113143h-264.411429l57.161143 165.376h264.448l19.053714 55.113143H2785.755429z m-806.034286 0L1812.114286 703.634286 1760.548571 871.606857h-215.478857l102.107429-333.421714-66.486857-192.182857h215.478857l66.486857 192.182857L2195.2 871.606857h-215.478857z m-1420.068572 0l-105.142857-200.704h258.779429l-114.944-120.173714-154.331429-149.613714-56.795428-55.113143h245.723428l143.725715 97.389714 101.961142 294.765714-86.089142 133.485715h-232.923429z m-357.558857 0L20.333714 346.002286H354.194286l123.757714 209.188571H251.794286L529.225143 871.570286H202.093714z m2097.737143 0l-118.564571-120.393143-140.141715-405.211428h479.890286l19.090286 55.113143h-264.411429l67.364572 194.889142H2607.542857l19.053714 55.113143h-264.411428l57.197714 165.376h264.411429l19.090285 55.113143h-403.017142z m-753.737143-920.32l53.833143-16.530286 16.201143 45.421715-53.833143 16.530285-16.201143-45.421714z m772.973715 208.896l-5.522286-15.469714h-73.069714l-7.058286-19.748572h73.069714l-20.187428-56.502857h-59.172572l-7.058286-19.785143h130.011429l-1.938286-5.412571-59.428571-42.569143-23.478857 42.569143H2165.211429l29.147428 81.700571h20.955429l7.058285 19.748572h-20.955428l5.083428 14.262857h-83.090285l-5.083429-14.262857h-34.121143l-7.058285-19.748572h34.121142l-29.147428-81.700571h-34.157714l-7.058286-19.748571h34.157714l-43.337143-121.380572h-34.157714l-7.058286-19.748571h117.211429l7.058286 19.748571 43.337142 121.344h57.051429l29.805714-54.125714-121.307428-87.003429h61.001143l77.604571 55.625143 30.646857-55.588571h61.001143l-47.908571 86.930285 103.131428 73.947429 1.938286 5.412571 6.765714 18.980572 0.292572 0.804571h-70.838858l20.187429 56.502857h73.033143l7.094857 19.748572h-73.069714l5.485714 15.469714h-60.964571z m-904.777143-15.433143H1315.474286l-7.058286-19.821714h98.852571l7.058286 19.821714z m-15.652572-31.817143H1319.862857v-0.036571h-15.798857l-7.058286-19.748571h15.798857l-68.205714-191.012572-7.058286-19.748571h344.612572l7.058286 19.748571h-261.522286l68.205714 190.976 7.058286 19.785143h-4.315429z m572.708572 46.006858l-65.792-184.210286h-39.131429l24.502857 68.534857H1811.382857l29.147429 81.700571 7.094857 19.748572v0.073143H1764.571429v-0.073143h-43.922286l-7.058286-19.748572h43.885714l-29.147428-81.700571h-43.922286l-7.058286-19.748571h43.885715l-50.358857-141.165715h83.090285l50.395429 141.165715h18.468571l-17.371428-48.786286-7.094857-19.748572h100.132571l-25.965714-72.630857h83.126857l25.929143 72.594286h14.811428l7.058286 19.785143h-14.811429l65.755429 184.210286h-83.053714z m-297.545143-148.260572l-45.824-128.329143h32.877714l45.787429 128.329143h-32.841143z m-767.524572 114.285714h108.690286l7.094857 19.748572h-108.726857l-7.058286-19.748572z m-4.864-13.604571l-7.058285-19.785143h25.6l-5.632-15.835428-31.158857-87.296-37.888-106.057143h83.090285l37.888 106.057143 31.158857 87.296 5.632 15.835428 3.547429 9.874286 3.547429 9.874286h-108.726858z m183.332572 1.536h-61.001143l-7.058286-19.785143-14.262857-39.936-7.058286-19.785143h115.2l7.058286 19.748572 10.313143 28.891428h-32.841143l-10.313143-28.891428h-21.357714l14.262857 39.972571h129.572572l-14.262858-39.936h-21.357714l10.313143 28.891429h-32.841143l-10.349714-28.891429-7.058286-19.785143h115.2l7.094857 19.748572 14.262857 39.972571 7.058286 19.785143H1084.708571z m122.770286 46.08h-83.090286l-5.046857-14.262857h-84.260572l-7.058285-19.748572h251.574857l7.058285 19.748572h-84.260571l5.12 14.262857z m-223.890286-158.500571l-42.203429-118.125715h37.12l42.166857 118.125715h-37.083428z m107.154286-81.737143h32.841142l29.184 81.773714h-32.841142l-29.184-81.773714z m83.382857 81.737143l-42.166857-118.125715h61.001142l42.166858 118.125715h-61.001143z m-188.525715 5.632h251.538286l7.058286 19.748571h-251.538286l-7.058286-19.748571z m887.771429 54.893714h55.588571l17.92 50.176h-34.340571l12.470857 34.889143h-55.588571l-17.92-50.176h34.340571l-12.470857-34.889143z m-788.553143-158.866286h-5.485714c-10.496 0.146286-12.434286 1.170286-9.947429 8.777143l32 89.6h-60.123428l-34.889143-97.755429-0.292572-0.987428a16.347429 16.347429 0 0 1 14.848-19.419429h89.673143l7.058286 19.785143h-32.841143zM1514.569143 25.892571l67.657143 67.218286h14.189714l-23.990857-67.218286h-57.856z m-72.667429 0l24.027429 67.218286h59.611428l-67.657142-67.218286h-15.981715z m161.572572 87.003429h-1.353143l32.073143 31.890286h-56.685715l-0.073142-0.036572h-93.074286l5.046857 14.189715h-61.001143l-5.046857-14.189715-7.058286-19.821714h141.238857l-12.141714-12.032H1412.022857l-2.925714-8.155429-4.132572-11.629714-24.027428-67.218286-4.827429-13.531428-2.230857-6.253714h64.109714l-96.036571-95.451429h56.685714l105.435429 104.777143-1.462857-4.169143-1.828572-5.156571-27.684571-77.458286-6.436572-17.993143-0.621714-1.828571h124.708572l7.021714 19.821714h-63.707429l27.684572 77.458286h64.621714l2.230857 6.253714 4.864 13.531428 31.085714 87.003429H1603.437714z"  horiz-adv-x="3291" />

    
    <glyph glyph-name="site_alarm" unicode="&#59110;" d="M512 384m-512 0a512 512 0 1 1 1024 0 512 512 0 1 1-1024 0ZM512 640c-124.8 0-224-99.2-224-224s224-288 224-288 224 163.2 224 288c0 124.8-99.2 224-224 224z m0-320c-54.4 0-96 41.6-96 96s41.6 96 96 96 96-41.6 96-96c0-51.2-41.6-96-96-96z"  horiz-adv-x="1024" />

    
    <glyph glyph-name="batteries" unicode="&#59111;" d="M512 384m-512 0a512 512 0 1 1 1024 0 512 512 0 1 1-1024 0ZM700.8 556.8h-48v28.8c0 12.8-9.6 22.4-22.4 22.4h-236.8c-12.8 0-19.2-9.6-19.2-19.2v-28.8h-48c-19.2 0-35.2-16-35.2-35.2v-272c0-19.2 16-35.2 35.2-35.2h374.4c19.2 0 35.2 16 35.2 35.2v272c0 16-16 32-35.2 32zM608 371.2l-96-96c-3.2-3.2-9.6-6.4-16-6.4s-12.8 3.2-16 6.4c-9.6 9.6-9.6 25.6 0 35.2l54.4 54.4H448c-9.6 0-19.2 6.4-22.4 16-3.2 9.6-3.2 19.2 6.4 25.6l96 96c9.6 9.6 25.6 9.6 32 0 9.6-9.6 9.6-25.6 0-35.2l-54.4-54.4h86.4c9.6 0 19.2-6.4 22.4-16 3.2-6.4 3.2-19.2-6.4-25.6zM720 188.8H300.8c-6.4 0-12.8-6.4-12.8-12.8 0-9.6 6.4-16 12.8-16h419.2c6.4 0 12.8 6.4 12.8 12.8 0 9.6-6.4 16-12.8 16z"  horiz-adv-x="1024" />

    
    <glyph glyph-name="bess" unicode="&#59112;" d="M512 384m-512 0a512 512 0 1 1 1024 0 512 512 0 1 1-1024 0ZM691.2 579.2c-12.8 16-32 28.8-54.4 28.8h-227.2c-19.2 0-35.2-6.4-48-19.2L256 480h512l-76.8 99.2zM256 198.4c0-22.4 16-38.4 38.4-38.4h435.2c22.4 0 38.4 16 38.4 38.4V448H256v-249.6z m64 118.4c0 6.4 3.2 9.6 9.6 9.6h361.6c6.4 0 9.6-3.2 9.6-9.6v-22.4c0-6.4-3.2-9.6-9.6-9.6H329.6c-6.4 0-9.6 3.2-9.6 9.6v22.4z"  horiz-adv-x="1024" />

    
    <glyph glyph-name="battery" unicode="&#59113;" d="M512 384m-512 0a512 512 0 1 1 1024 0 512 512 0 1 1-1024 0ZM700.8 556.8h-48v28.8c0 12.8-9.6 22.4-22.4 22.4h-236.8c-12.8 0-19.2-9.6-19.2-19.2v-28.8h-48c-19.2 0-35.2-16-35.2-35.2v-326.4c0-19.2 16-35.2 35.2-35.2H704c19.2 0 35.2 16 35.2 35.2V521.6c-3.2 19.2-19.2 35.2-38.4 35.2z m-86.4-217.6l-112-112c-3.2-3.2-9.6-6.4-16-6.4s-12.8 3.2-16 6.4c-9.6 9.6-9.6 25.6 0 35.2l70.4 70.4h-112c-9.6 0-19.2 6.4-22.4 16-3.2 9.6-3.2 19.2 6.4 25.6l112 112c9.6 9.6 25.6 9.6 35.2 0 9.6-9.6 9.6-25.6 0-35.2l-70.4-70.4h112c9.6 0 19.2-6.4 22.4-16-3.2-9.6-3.2-19.2-9.6-25.6z"  horiz-adv-x="1024" />

    
    <glyph glyph-name="site" unicode="&#59114;" d="M512 384m-512 0a512 512 0 1 1 1024 0 512 512 0 1 1-1024 0ZM512 640c-124.8 0-224-99.2-224-224s224-288 224-288 224 163.2 224 288c0 124.8-99.2 224-224 224z m0-320c-54.4 0-96 41.6-96 96s41.6 96 96 96 96-41.6 96-96c0-51.2-41.6-96-96-96z"  horiz-adv-x="1024" />

    
    <glyph glyph-name="list" unicode="&#59115;" d="M64 832h345.6v-345.6H64zM614.4 832H960v-345.6H614.4zM64 281.6h345.6V-64H64zM614.4 281.6H960V-64H614.4z"  horiz-adv-x="1024" />

    
    <glyph glyph-name="history" unicode="&#59116;" d="M64 320h320v-320H64zM64 768h320v-320H64zM960 768H595.2l12.8-339.2 128 115.2s262.4-198.4-115.2-550.4c0 0 550.4 281.6 211.2 646.4l128 128z"  horiz-adv-x="1024" />

    
    <glyph glyph-name="search" unicode="&#59117;" d="M940.8 44.8l-160 160c44.8 64 76.8 140.8 76.8 230.4 0 217.6-179.2 396.8-396.8 396.8S64 652.8 64 435.2s179.2-396.8 396.8-396.8c83.2 0 166.4 25.6 230.4 76.8l160-160c25.6-25.6 64-25.6 89.6 0 25.6 25.6 25.6 64 0 89.6z m-480 128C313.6 172.8 192 288 192 435.2S313.6 704 460.8 704s268.8-121.6 268.8-268.8-121.6-262.4-268.8-262.4z"  horiz-adv-x="1024" />

    
    <glyph glyph-name="back" unicode="&#59118;" d="M147.2 544L441.6 256V428.8c89.6 0 307.2 0 307.2-236.8 0-121.6-83.2-230.4-198.4-249.6 179.2 25.6 320 185.6 320 384 0 364.8-371.2 364.8-435.2 364.8V838.4L147.2 544z"  horiz-adv-x="1024" />

    
    <glyph glyph-name="down" unicode="&#59119;" d="M512 224c-6.4 0-19.2 0-25.6 6.4l-256 256c-12.8 12.8-12.8 32 0 44.8s32 12.8 44.8 0L512 300.8l236.8 236.8c12.8 12.8 32 12.8 44.8 0s12.8-32 0-44.8l-256-256c-12.8-12.8-19.2-12.8-25.6-12.8z"  horiz-adv-x="1024" />

    
    <glyph glyph-name="add" unicode="&#59120;" d="M448 448H64v-128h384v-384h128V320h384V448H576V832H448z"  horiz-adv-x="1024" />

    
    <glyph glyph-name="unfold" unicode="&#59121;" d="M512 128L19.2 544 108.8 640 512 294.4 915.2 640l89.6-96z"  horiz-adv-x="1024" />

    
    <glyph glyph-name="fold" unicode="&#59123;" d="M512 640l492.8-416-89.6-96-403.2 345.601-403.2-345.601-89.6 96z"  horiz-adv-x="1024" />

    
    <glyph glyph-name="capacity" unicode="&#59122;" d="M710.4 112H256c-9.6 0-16 6.4-16 16V640c0 9.6 6.4 16 16 16h454.4c9.6 0 16-6.4 16-16v-80H768c9.6 0 16-6.4 16-16v-320c0-9.6-9.6-16-16-16h-38.4V128c-3.2-9.6-9.6-16-19.2-16z m-438.4 32h422.4V224c0 9.6 6.4 16 16 16h41.6v288h-41.6c-9.6 0-16 6.4-16 16V624H272v-480zM390.4 512h48v-256h-48zM518.4 512h48v-256h-48z"  horiz-adv-x="1024" />

    
    <glyph glyph-name="Shape" unicode="&#59124;" d="M350.569412-37.406118c0-25.057882 22.106353-45.417412 49.332706-45.417411 27.226353 0 49.272471 20.359529 49.27247 45.417411V835.523765c0 25.057882-22.046118 45.417412-49.27247 45.417411-27.226353 0-49.272471-20.359529-49.272471-45.417411v-872.929883z m262.866823 0c0-25.057882 22.106353-45.417412 49.272471-45.417411 27.226353 0 49.332706 20.359529 49.332706 45.417411V835.523765c0 25.057882-22.106353 45.417412-49.332706 45.417411-27.166118 0-49.272471-20.359529-49.272471-45.417411v-872.929883z"  horiz-adv-x="1024" />

    
    <glyph glyph-name="right" unicode="&#59125;" d="M672 384c0-6.4 0-19.2-6.4-25.6l-256-256c-12.8-12.8-32-12.8-44.8 0s-12.8 32 0 44.8L595.2 384 358.4 614.4c-12.8 12.8-12.8 32 0 44.8s32 12.8 44.8 0l256-256c12.8-6.4 12.8-12.8 12.8-19.2z"  horiz-adv-x="1024" />

    
    <glyph glyph-name="address" unicode="&#59126;" d="M512 896C262.4 896 64 697.6 64 448s448-576 448-576 448 326.4 448 576c0 249.6-198.4 448-448 448z m0-640c-108.8 0-192 83.2-192 192s83.2 192 192 192 192-83.2 192-192c0-102.4-83.2-192-192-192z"  horiz-adv-x="1024" />

    
    <glyph glyph-name="left" unicode="&#59127;" d="M352 384c0 6.4 0 19.2 6.4 25.6l256 256c12.8 12.8 32 12.8 44.8 0s12.8-32 0-44.8L428.8 384l236.8-236.8c12.8-12.8 12.8-32 0-44.8s-32-12.8-44.8 0l-256 256c-12.8 12.8-12.8 19.2-12.8 25.6z"  horiz-adv-x="1024" />

    
    <glyph glyph-name="time" unicode="&#59128;" d="M512 896C230.4 896 0 665.6 0 384s230.4-512 512-512 512 230.4 512 512-230.4 512-512 512z m320-563.2H512c-25.6 0-51.2 25.6-51.2 51.2V704c0 25.6 19.2 51.2 51.2 51.2s51.2-25.6 51.2-51.2v-268.8H832c25.6 0 51.2-19.2 51.2-51.2s-25.6-51.2-51.2-51.2z"  horiz-adv-x="1024" />

    
    <glyph glyph-name="user" unicode="&#59129;" d="M1011.2-76.8c-38.4 179.2-174.933333 324.266667-345.6 375.466667 98.133333 55.466667 162.133333 157.866667 162.133333 273.066666 0 174.933333-145.066667 315.733333-320 315.733334S192 746.666667 192 571.733333c0-119.466667 68.266667-221.866667 162.133333-273.066666-170.666667-55.466667-307.2-196.266667-345.6-375.466667-4.266667-17.066667 8.533333-34.133333 25.6-38.4 17.066667-4.266667 34.133333 8.533333 38.4 25.6C115.2 110.933333 298.666667 256 512 256c213.333333 0 396.8-145.066667 439.466667-349.866667 4.266667-17.066667 17.066667-25.6 29.866666-25.6h8.533334c17.066667 4.266667 25.6 21.333333 21.333333 42.666667zM256 571.733333c0 136.533333 115.2 251.733333 256 251.733334s256-110.933333 256-251.733334-115.2-251.733333-256-251.733333-256 115.2-256 251.733333z"  horiz-adv-x="1024" />

    
    <glyph glyph-name="password" unicode="&#59130;" d="M887.466667 512c0 209.066667-170.666667 375.466667-375.466667 375.466667-209.066667 0-375.466667-170.666667-375.466667-375.466667h-128v-627.2h1002.666667V512h-123.733333zM512 819.2c170.666667 0 311.466667-140.8 311.466667-311.466667H200.533333C200.533333 682.666667 341.333333 819.2 512 819.2z m435.2-870.4H76.8V448h870.4v-499.2zM354.133333 260.266667h311.466667v-64H354.133333z"  horiz-adv-x="1024" />

    
    <glyph glyph-name="normal" unicode="&#59131;" d="M384 112c-19.2 0-35.2 6.4-48 22.4l-256 288c-22.4 25.6-22.4 67.2 6.4 89.6 25.6 22.4 67.2 22.4 89.6-6.4l214.4-243.2L854.4 643.2c28.8 22.4 67.2 19.2 89.6-9.6 22.4-28.8 19.2-67.2-9.6-89.6l-512-416c-9.6-12.8-25.6-16-38.4-16z"  horiz-adv-x="1024" />

    
    <glyph glyph-name="unusual" unicode="&#59132;" d="M512 60.8m-96 0a96 96 0 1 1 192 0 96 96 0 1 1-192 0ZM512 240c35.2 0 64 28.8 64 64V739.2c0 35.2-28.8 64-64 64s-64-28.8-64-64v-438.4c0-32 28.8-60.8 64-60.8z"  horiz-adv-x="1024" />

    
    <glyph glyph-name="link" unicode="&#59133;" d="M572.8 288c-16 16-41.6 16-57.6 0s-16-41.6 0-57.6l54.4-54.4-185.6-182.4L121.6 256l185.6 185.6 54.4-51.2c16-16 41.6-12.8 57.6 3.2s12.8 41.6-3.2 57.6l-83.2 76.8c-16 16-41.6 16-54.4 0l-243.2-243.2c-16-16-16-41.6 0-57.6l320-320c6.4-6.4 19.2-12.8 28.8-12.8s19.2 3.2 28.8 12.8l243.2 243.2c16 16 16 41.6 0 57.6L572.8 288zM988.8 540.8l-320 320c-16 16-41.6 16-57.6 0l-243.2-243.2c-6.4-6.4-12.8-19.2-12.8-28.8 0-9.6 3.2-22.4 12.8-28.8l83.2-76.8c16-16 41.6-12.8 57.6 3.2s12.8 41.6-3.2 57.6l-51.2 48L640 774.4l262.4-262.4-185.6-185.6-54.4 54.4c-16 16-41.6 16-57.6 0s-16-41.6 0-57.6l83.2-83.2c6.4-6.4 19.2-12.8 28.8-12.8s19.2 3.2 28.8 12.8l243.2 243.2c16 16 16 41.6 0 57.6zM345.6 256c0-9.6 3.2-19.2 12.8-28.8s19.2-12.8 28.8-12.8 19.2 3.2 28.8 12.8l256 256c6.4 6.4 12.8 19.2 12.8 28.8s-3.2 19.2-12.8 28.8c-16 16-41.6 16-57.6 0l-256-256c-9.6-9.6-12.8-19.2-12.8-28.8z"  horiz-adv-x="1024" />

    
    <glyph glyph-name="unlink" unicode="&#59134;" d="M534.4 288c-19.2 12.8-41.6 6.4-54.4-9.6-12.8-19.2-6.4-41.6 9.6-54.4l51.2-35.2-137.6-198.4-281.6 198.4L256 384l38.4-32c16-12.8 41.6-12.8 57.6 6.4 12.8 16 12.8 41.6-6.4 57.6l-70.4 57.6c-9.6 6.4-19.2 9.6-32 9.6-9.6 0-22.4-6.4-28.8-16L32 201.6c-12.8-19.2-9.6-41.6 9.6-54.4L387.2-96c6.4-3.2 16-6.4 22.4-6.4h6.4c9.6 3.2 19.2 6.4 25.6 16l185.6 262.4c6.4 9.6 9.6 19.2 6.4 28.8s-6.4 19.2-16 25.6L534.4 288zM992 508.8L748.8 854.4C736 873.6 710.4 876.8 694.4 864l-262.4-185.6c-9.6-6.4-16-16-16-28.8 0-9.6 0-22.4 9.6-32l57.6-70.4c12.8-16 38.4-19.2 57.6-6.4 16 12.8 19.2 38.4 6.4 57.6L512 640l195.2 137.6 198.4-281.6-198.4-137.6-35.2 48c-12.8 19.2-38.4 22.4-54.4 9.6-19.2-12.8-22.4-38.4-9.6-54.4l57.6-83.2c6.4-9.6 16-16 25.6-16h6.4c9.6 0 16 3.2 22.4 6.4l262.4 185.6c9.6 6.4 16 16 16 25.6 3.2 9.6 0 19.2-6.4 28.8zM329.6 288c0-9.6 3.2-19.2 12.8-28.8s19.2-12.8 28.8-12.8 19.2 3.2 28.8 12.8l240 240c6.4 6.4 12.8 19.2 12.8 28.8s-3.2 19.2-12.8 28.8c-16 16-41.6 16-57.6 0l-240-240c-9.6-9.6-12.8-19.2-12.8-28.8zM195.2 643.2c9.6-6.4 19.2-9.6 28.8-9.6s19.2 3.2 28.8 12.8c16 16 16 41.6 0 57.6l-64 64c-16 16-41.6 16-57.6 0s-16-41.6 0-57.6l64-67.2zM320 665.6c22.4 0 38.4 19.2 38.4 38.4V800c0 22.4-19.2 38.4-38.4 38.4S281.6 822.4 281.6 800v-96c0-22.4 16-38.4 38.4-38.4zM96 537.6h96c22.4 0 38.4 19.2 38.4 38.4S214.4 614.4 192 614.4H96c-22.4 0-38.4-19.2-38.4-38.4s16-38.4 38.4-38.4z"  horiz-adv-x="1024" />

    
    <glyph glyph-name="protect" unicode="&#59135;" d="M993.694704 302.654206l3.190031 3.190031c0 3.190031 3.190031 6.380062 3.190031 9.570093 0 191.401869-82.94081 325.383178-220.112149 408.323988-47.850467 28.71028-98.890966 51.040498-149.931464 63.800623-19.140187 6.380062-35.090343 9.570093-47.850468 12.760124-9.570093 3.190031-15.950156 3.190031-19.140187 3.190032-12.760125 0-25.520249-6.380062-25.520249-19.140187 0-12.760125 6.380062-25.520249 19.140187-25.52025 3.190031 0 9.570093 0 15.950156-3.190031 12.760125-3.190031 28.71028-6.380062 44.660436-9.570093 47.850467-12.760125 92.510903-31.900312 137.17134-60.610592 102.080997-63.800623 172.261682-156.311526 191.401869-287.102804-25.520249 22.330218-54.23053 35.090343-86.130841 35.090343-41.470405 0-76.560748-22.330218-105.271028-54.23053-3.190031-6.380062-6.380062-9.570093-12.760125-15.950155-3.190031 3.190031-6.380062 9.570093-12.760125 15.950155-28.71028 35.090343-63.800623 54.23053-105.271028 54.23053s-76.560748-22.330218-105.271028-54.23053c-3.190031-6.380062-6.380062-9.570093-12.760124-15.950155-3.190031 3.190031-6.380062 9.570093-12.760125 15.950155-28.71028 35.090343-63.800623 54.23053-105.271028 54.23053s-76.560748-22.330218-105.271028-54.23053c-3.190031-6.380062-6.380062-9.570093-12.760125-15.950155-3.190031 3.190031-6.380062 9.570093-12.760124 15.950155-28.71028 35.090343-63.800623 54.23053-105.271028 54.23053-31.900312 0-60.610592-12.760125-86.130841-35.090343 22.330218 130.791277 98.890966 223.302181 213.732087 287.102804 47.850467 25.520249 102.080997 47.850467 153.121495 60.610592 19.140187 3.190031 35.090343 9.570093 51.040499 9.570093 9.570093 0 15.950156 3.190031 19.140187 3.190031l22.330218 22.330219V873.669782c9.570093 12.760125 0 22.330218-12.760125 22.330218s-22.330218-9.570093-22.330218-22.330218V800.299065c-15.950156-3.190031-35.090343-6.380062-54.23053-12.760124-57.420561-12.760125-111.65109-35.090343-165.88162-63.800623C116.436137 640.797508 23.925234 506.816199 23.925234 315.41433c0-3.190031 0-6.380062 3.190031-9.570093l3.190031-3.190031s0-3.190031 3.190031-3.190032l6.380062-6.380062h6.380063c3.190031 0 6.380062 0 9.570093 3.190031l3.190031 3.190031s3.190031 0 3.190031 3.190032l6.380063 6.380062c0 3.190031 3.190031 6.380062 6.380062 12.760125l19.140187 28.71028c22.330218 22.330218 44.660436 35.090343 70.180685 35.090343s47.850467-12.760125 70.180686-38.280374l19.140187-28.710281c3.190031-6.380062 3.190031-9.570093 6.380062-12.760124 0-3.190031 3.190031-3.190031 3.190031-6.380063 3.190031-3.190031 3.190031-3.190031 6.380062-3.190031s6.380062-3.190031 9.570094-3.190031c3.190031 0 6.380062 0 9.570093 3.190031 3.190031 0 3.190031 3.190031 6.380063 3.190031 3.190031 3.190031 3.190031 3.190031 3.190031 6.380063s3.190031 6.380062 6.380062 12.760124l19.140187 28.710281c19.140187 25.520249 44.660436 38.280374 70.180685 38.280374s47.850467-12.760125 70.180686-38.280374l19.140187-28.710281c3.190031-3.190031 3.190031-6.380062 3.190031-9.570093v-319.003115c0-9.570093-3.190031-22.330218-9.570094-35.090343-9.570093-22.330218-28.71028-35.090343-60.610592-35.090343-35.090343 0-63.800623 15.950156-89.320872 38.280374-9.570093 9.570093-15.950156 19.140187-22.330218 28.71028-3.190031 6.380062-6.380062 9.570093-6.380062 12.760125-6.380062 12.760125-19.140187 15.950156-31.900312 9.570094s-15.950156-19.140187-9.570093-31.900312 19.140187-31.900312 38.280374-51.040498c31.900312-31.900312 73.370717-54.23053 121.221183-54.23053 51.040498 0 82.94081 22.330218 102.080997 60.610592 9.570093 22.330218 12.760125 41.470405 12.760125 57.420561v319.003115c0 3.190031 3.190031 6.380062 3.190031 9.570093l19.140187 28.710281c19.140187 25.520249 44.660436 38.280374 70.180685 38.280374s47.850467-12.760125 70.180686-38.280374l19.140187-28.710281c3.190031-6.380062 6.380062-9.570093 6.380062-12.760124 0-3.190031 3.190031-3.190031 3.190031-6.380063 3.190031-3.190031 3.190031-3.190031 6.380062-3.190031s6.380062-3.190031 9.570094-3.190031c3.190031 0 6.380062 0 9.570093 3.190031 3.190031 0 3.190031 3.190031 6.380063 3.190031 3.190031 3.190031 3.190031 3.190031 3.190031 6.380063s3.190031 6.380062 6.380062 12.760124l19.140187 28.710281c19.140187 25.520249 44.660436 38.280374 70.180685 38.280374 25.520249 0 47.850467-12.760125 70.180686-38.280374l19.140187-28.710281c3.190031-6.380062 6.380062-9.570093 6.380062-12.760124 0-3.190031 3.190031-6.380062 6.380062-6.380063l3.190031-3.190031 3.190032-3.190031c3.190031 0 6.380062-3.190031 9.570093-3.190031h6.380062c3.190031 0 6.380062 3.190031 6.380063 6.380062 9.570093 3.190031 9.570093 6.380062 9.570093 6.380063z"  horiz-adv-x="1024" />

    
    <glyph glyph-name="unprotect" unicode="&#59136;" d="M995.2 300.8l3.2 3.2c0 3.2 3.2 6.4 3.2 9.6 0 150.4-51.2 262.4-137.6 345.6l57.6 57.6c9.6 9.6 9.6 22.4 0 32-9.6 9.6-22.4 9.6-32 0L832 691.2c-16 12.8-32 22.4-48 32-48 28.8-99.2 51.2-150.4 64-19.2 6.4-35.2 9.6-48 12.8-9.6 3.2-16 3.2-19.2 3.2-12.8 0-25.6-6.4-25.6-19.2 0-12.8 6.4-25.6 19.2-25.6 3.2 0 9.6 0 16-3.2 12.8-3.2 28.8-6.4 44.8-9.6 48-12.8 92.8-32 137.6-60.8 12.8-9.6 25.6-16 38.4-25.6l-288-288-6.4 6.4c-28.8 35.2-64 54.4-105.6 54.4s-76.8-22.4-105.6-54.4c-3.2-6.4-6.4-9.6-12.8-16-3.2 3.2-6.4 9.6-12.8 16-28.8 35.2-64 54.4-105.6 54.4-32 0-60.8-12.8-86.4-35.2 22.4 131.2 99.2 224 214.4 288 48 25.6 102.4 48 153.6 60.8 19.2 3.2 35.2 9.6 51.2 9.6 9.6 0 16 3.2 19.2 3.2l22.4 22.4V873.6c0 12.8-9.6 22.4-22.4 22.4s-22.4-9.6-22.4-22.4V800c-16-3.2-35.2-6.4-54.4-12.8-57.6-12.8-112-35.2-166.4-64C115.2 640 22.4 505.6 22.4 313.6c0-3.2 0-6.4 3.2-9.6l3.2-3.2s0-3.2 3.2-3.2l6.4-6.4h6.4c3.2 0 6.4 0 9.6 3.2l3.2 3.2s3.2 0 3.2 3.2l6.4 6.4c0 3.2 3.2 6.4 6.4 12.8l19.2 28.8c22.4 22.4 44.8 35.2 70.4 35.2s48-12.8 70.4-38.4l19.2-28.8c3.2-6.4 3.2-9.6 6.4-12.8 0-3.2 3.2-3.2 3.2-6.4 3.2-3.2 3.2-3.2 6.4-3.2s6.4-3.2 9.6-3.2c3.2 0 6.4 0 9.6 3.2 3.2 0 3.2 3.2 6.4 3.2 3.2 3.2 3.2 3.2 3.2 6.4s3.2 6.4 6.4 12.8l19.2 28.8c19.2 25.6 44.8 38.4 70.4 38.4s48-12.8 70.4-38.4c3.2-3.2 3.2-6.4 6.4-9.6L121.6-12.8c-9.6-9.6-9.6-22.4 0-32 9.6-9.6 22.4-9.6 32 0L486.4 288v-297.6c0-9.6-3.2-22.4-9.6-35.2-9.6-22.4-28.8-35.2-60.8-35.2-35.2 0-64 16-89.6 38.4-9.6 9.6-16 19.2-22.4 28.8-3.2 6.4-6.4 9.6-6.4 12.8-6.4 12.8-19.2 16-32 9.6s-16-19.2-9.6-32 19.2-32 38.4-51.2c32-32 73.6-54.4 121.6-54.4 51.2 0 83.2 22.4 102.4 60.8 9.6 22.4 12.8 41.6 12.8 57.6v320c0 3.2 3.2 6.4 3.2 9.6l19.2 28.8c19.2 25.6 44.8 38.4 70.4 38.4s48-12.8 70.4-38.4l19.2-28.8c3.2-6.4 6.4-9.6 6.4-12.8 0-3.2 3.2-3.2 3.2-6.4 3.2-3.2 3.2-3.2 6.4-3.2s6.4-3.2 9.6-3.2c3.2 0 6.4 0 9.6 3.2 3.2 0 3.2 3.2 6.4 3.2 3.2 3.2 3.2 3.2 3.2 6.4s3.2 6.4 6.4 12.8l19.2 28.8c19.2 25.6 44.8 38.4 70.4 38.4 25.6 0 48-12.8 70.4-38.4l19.2-28.8c3.2-6.4 6.4-9.6 6.4-12.8 0-3.2 3.2-6.4 6.4-6.4l3.2-3.2 3.2-3.2c3.2 0 6.4-3.2 9.6-3.2h6.4c3.2 0 6.4 3.2 6.4 6.4 9.6 0 9.6 3.2 9.6 3.2z m-134.4 131.2c-41.6 0-76.8-22.4-105.6-54.4-3.2-6.4-6.4-9.6-12.8-16-3.2 3.2-6.4 9.6-12.8 16-25.6 32-60.8 54.4-99.2 54.4l198.4 198.4c60.8-57.6 102.4-134.4 118.4-233.6-25.6 19.2-54.4 35.2-86.4 35.2z"  horiz-adv-x="1024" />

    
    <glyph glyph-name="minimumvalue" unicode="&#59137;" d="M512 198.4L192 524.8h230.4V710.4h179.2v-185.6H832zM192 147.2h640v-89.6H192z"  horiz-adv-x="1024" />

    
    <glyph glyph-name="maximumvalue" unicode="&#59138;" d="M512 569.6l-320-326.4h230.4v-185.6h179.2v185.6H832zM192 704h640v-89.6H192z"  horiz-adv-x="1024" />

    
    <glyph glyph-name="zoomout" unicode="&#59139;" d="M640 448h384v128h-230.4l211.2 211.2-89.6 89.6-211.2-211.2v230.4h-128v-384M384 320h-384v-128h230.4l-211.2-211.2 89.6-89.6 211.2 211.2v-230.4h128v384z"  horiz-adv-x="1024" />

    
    <glyph glyph-name="zoomin" unicode="&#59140;" d="M960 896h-384v-128h230.4l-211.2-211.2 89.6-89.6 211.2 211.2v-230.4h128v384zM428.8 211.2l-89.6 89.6-211.2-211.2v230.4h-128v-384l64-64h384v128h-230.4z"  horiz-adv-x="1024" />

    
    <glyph glyph-name="refresh" unicode="&#59141;" d="M576 832c-224 0-409.6-166.4-441.6-384h-134.4l192-256 192 256h-121.6c32 147.2 160 256 313.6 256 179.2 0 320-140.8 320-320s-140.8-320-320-320c-44.8 0-83.2 6.4-121.6 25.6-32 12.8-70.4 0-83.2-32-12.8-32 0-70.4 32-83.2 51.2-25.6 115.2-38.4 172.8-38.4 249.6 0 448 198.4 448 448s-204.8 448-448 448z"  horiz-adv-x="1024" />

    
    <glyph glyph-name="estimate" unicode="&#59142;" d="M233.6 342.4c-22.4-3.2-54.4-22.4-67.2-32-12.8-9.6-32-25.6-32-48v-220.8c0-22.4 16-38.4 38.4-38.4h57.6c19.2 0 28.8 16 28.8 38.4v240c-3.2 25.6-3.2 67.2-25.6 60.8z m176 83.2c-19.2 0-44.8-19.2-44.8-19.2s-28.8-16-28.8-38.4v-332.8c0-22.4 16-38.4 38.4-38.4h44.8c19.2 0 38.4 16 38.4 38.4V384c0 19.2-25.6 41.6-48 41.6z m220.8 32c-12.8 0-60.8-28.8-60.8-28.8s-44.8-28.8-44.8-60.8v-329.6c0-22.4 6.4-38.4 28.8-38.4h57.6c19.2 0 38.4 16 38.4 38.4v384c0 19.2-3.2 35.2-19.2 35.2z m160 86.4c-22.4-3.2-51.2-22.4-51.2-22.4s-22.4-16-22.4-38.4v-448c0-22.4 6.4-38.4 28.8-38.4H800c19.2 0 38.4 16 38.4 38.4V492.8c0 9.6-22.4 51.2-48 51.2z m150.4 227.2l-182.4-19.2c-19.2-3.2-25.6-16-16-32l19.2-35.2C681.6 640 544 560 528 560c-22.4 0-73.6 28.8-73.6 28.8h-3.2c-9.6 6.4-22.4 6.4-35.2 0L86.4 419.2c-19.2-9.6-25.6-32-16-51.2 9.6-19.2 32-25.6 51.2-16l313.6 163.2 70.4-32h3.2c9.6-6.4 25.6-9.6 38.4 0l256 140.8 19.2-32c9.6-16 25.6-16 35.2 0L960 748.8c6.4 12.8 0 22.4-19.2 22.4z"  horiz-adv-x="1024" />

    
    <glyph glyph-name="telephone" unicode="&#59143;" d="M853.333333 887.466667H170.666667C81.066667 887.466667 8.533333 814.933333 8.533333 725.333333v-682.666666c0-89.6 72.533333-162.133333 162.133334-162.133334h682.666666c89.6 0 162.133333 72.533333 162.133334 162.133334V725.333333c0 89.6-72.533333 162.133333-162.133334 162.133334zM170.666667 819.2h682.666666c51.2 0 93.866667-42.666667 93.866667-93.866667v-499.2H76.8V725.333333c0 51.2 42.666667 93.866667 93.866667 93.866667z m682.666666-870.4H170.666667c-51.2 0-93.866667 42.666667-93.866667 93.866667v119.466666h874.666667V42.666667c-4.266667-51.2-46.933333-93.866667-98.133334-93.866667zM448 72.533333h123.733333v-64h-123.733333z"  horiz-adv-x="1024" />

    
    <glyph glyph-name="user1" unicode="&#59144;" d="M1011.2-76.8c-38.4 179.2-174.933333 324.266667-345.6 375.466667 98.133333 55.466667 162.133333 157.866667 162.133333 273.066666 0 174.933333-145.066667 315.733333-320 315.733334S187.733333 746.666667 187.733333 571.733333c0-119.466667 68.266667-221.866667 162.133334-273.066666-170.666667-55.466667-307.2-196.266667-345.6-375.466667-4.266667-17.066667 8.533333-34.133333 25.6-38.4 17.066667-4.266667 34.133333 8.533333 38.4 25.6C115.2 110.933333 298.666667 256 512 256s396.8-145.066667 439.466667-349.866667c4.266667-17.066667 17.066667-25.6 29.866666-25.6h8.533334c17.066667 4.266667 25.6 21.333333 21.333333 42.666667zM256 571.733333c0 136.533333 115.2 251.733333 256 251.733334s256-110.933333 256-251.733334-115.2-251.733333-256-251.733333-256 115.2-256 251.733333z"  horiz-adv-x="1024" />

    
    <glyph glyph-name="password1" unicode="&#59145;" d="M887.466667 512c0 209.066667-170.666667 375.466667-375.466667 375.466667-209.066667 0-375.466667-170.666667-375.466667-375.466667h-128v-627.2h1002.666667V512h-123.733333zM512 819.2c170.666667 0 311.466667-140.8 311.466667-311.466667H200.533333C200.533333 682.666667 341.333333 819.2 512 819.2z m435.2-870.4H76.8V448h870.4v-499.2zM354.133333 260.266667h311.466667v-64H354.133333z"  horiz-adv-x="1024" />

    
    <glyph glyph-name="code" unicode="&#59146;" d="M1015.466667 772.266667c0 25.6-8.533333 51.2-29.866667 72.533333-38.4 38.4-102.4 38.4-140.8 0l-25.6-25.6c-38.4 29.866667-98.133333 29.866667-136.533333-4.266667a104.789333 104.789333 0 0 1-8.533334-136.533333l-85.333333-85.333333c-72.533333 42.666667-153.6 59.733333-238.933333 46.933333-170.666667-21.333333-307.2-149.333333-337.066667-320-29.866667-183.466667 68.266667-358.4 238.933333-426.666667l29.866667 64c-145.066667 55.466667-226.133333 200.533333-200.533333 354.133334 21.333333 140.8 136.533333 247.466667 277.333333 264.533333 76.8 8.533333 153.6-8.533333 217.6-51.2l21.333333-12.8 166.4 166.4-38.4 34.133333c-8.533333 8.533333-8.533333 17.066667-8.533333 25.6 0 8.533333 4.266667 17.066667 8.533333 25.6 12.8 12.8 38.4 12.8 51.2 0l38.4-38.4 72.533334 72.533334c12.8 12.8 34.133333 12.8 51.2 0 8.533333-8.533333 8.533333-17.066667 8.533333-25.6s0-17.066667-8.533333-25.6l-290.133334-290.133334 12.8-21.333333c42.666667-64 59.733333-140.8 51.2-217.6-12.8-115.2-93.866667-217.6-204.8-260.266667l21.333334-59.733333c132.266667 51.2 226.133333 174.933333 243.2 315.733333 8.533333 85.333333-8.533333 166.4-46.933334 238.933334l251.733334 251.733333c25.6 17.066667 38.4 42.666667 38.4 68.266667zM396.8 401.066667c-89.6 0-162.133333-72.533333-162.133333-162.133334s72.533333-162.133333 162.133333-162.133333 162.133333 72.533333 162.133333 162.133333-72.533333 162.133333-162.133333 162.133334z m0-256c-55.466667 0-98.133333 42.666667-98.133333 98.133333S341.333333 341.333333 396.8 341.333333s98.133333-42.666667 98.133333-98.133333-42.666667-98.133333-98.133333-98.133333z"  horiz-adv-x="1024" />

    
    <glyph glyph-name="delete" unicode="&#59147;" d="M512 896c-281.6 0-512-230.4-512-512s230.4-512 512-512 512 230.4 512 512-230.4 512-512 512zM736 224c19.2-19.2 19.2-51.2 0-70.4-6.4-6.4-19.2-12.8-32-12.8s-25.6 6.4-32 12.8l-160 160-160-160c-6.4-6.4-19.2-12.8-32-12.8s-25.6 6.4-32 12.8c-19.2 19.2-19.2 51.2 0 70.4l153.6 160-153.6 160c-19.2 19.2-19.2 51.2 0 70.4s51.2 19.2 70.4 0l153.6-160 160 160c19.2 19.2 51.2 19.2 70.4 0s19.2-51.2 0-70.4l-160-160 153.6-160z"  horiz-adv-x="1024" />

    
    <glyph glyph-name="alarm" unicode="&#59148;" d="M512 896C230.4 896 0 665.6 0 384s230.4-512 512-512 512 230.4 512 512S793.6 896 512 896z m-64-230.4c0 34.133333 29.866667 64 64 64s64-29.866667 64-64v-298.666667c0-34.133333-29.866667-64-64-64s-64 29.866667-64 64v298.666667zM512 38.4c-42.666667 0-81.066667 34.133333-81.066667 81.066667s34.133333 81.066667 81.066667 81.066666 81.066667-34.133333 81.066667-81.066666-38.4-81.066667-81.066667-81.066667z"  horiz-adv-x="1024" />

    
    <glyph glyph-name="save" unicode="&#59149;" d="M787.2 896H32C12.8 896 0 883.2 0 864v-960c0-19.2 12.8-32 32-32h960c19.2 0 32 12.8 32 32V652.8L787.2 896z m-115.2-268.8c0-6.4-6.4-19.2-19.2-19.2h-512c-6.4 0-12.8 6.4-12.8 19.2v128c0 6.4 6.4 12.8 12.8 12.8h512c6.4 0 19.2-6.4 19.2-19.2v-121.6z m224-614.4c0-6.4-6.4-19.2-19.2-19.2H140.8c-6.4 6.4-12.8 12.8-12.8 19.2V384c0 6.4 6.4 19.2 19.2 19.2h736c6.4-6.4 12.8-12.8 12.8-19.2v-371.2z m-64 320c0 6.4-6.4 19.2-19.2 19.2h-96c-6.4 0-19.2-6.4-19.2-19.2v-96c0-6.4 6.4-19.2 19.2-19.2h96c6.4 0 19.2 6.4 19.2 19.2V332.8z"  horiz-adv-x="1024" />

    
    <glyph glyph-name="map-list" unicode="&#59151;" d="M288 608h172.8v-172.8H288zM563.2 608H736v-172.8h-172.8zM288 332.8h172.8V160H288zM563.2 332.8H736V160h-172.8z"  horiz-adv-x="1024" />

    
    <glyph glyph-name="map" unicode="&#59152;" d="M521.6 339.2s128 92.8 128 166.4-57.6 128-128 128-128-57.6-128-128 128-166.4 128-166.4z m0 220.8c28.8 0 54.4-25.6 54.4-54.4s-25.6-54.4-54.4-54.4-54.4 25.6-54.4 54.4 22.4 54.4 54.4 54.4zM796.8 243.2l-64 150.4c-6.4 19.2-25.6 32-48 32h-25.6s-73.6-105.6-137.6-150.4c0 0-73.6 57.6-144 150.4h-44.8c-28.8 0-54.4-19.2-64-48L224 214.4c-3.2-12.8 6.4-22.4 22.4-22.4l134.4 22.4c16 3.2 35.2 0 51.2-12.8l67.2-48c22.4-16 51.2-22.4 76.8-16l204.8 73.6c12.8 3.2 22.4 19.2 16 32z"  horiz-adv-x="1024" />

    
    <glyph glyph-name="trade" unicode="&#59150;" d="M736 505.6h-70.4v64c0 32-25.6 57.6-57.6 57.6h-192c-32 0-57.6-25.6-57.6-57.6v-64H288c-19.2 0-32-12.8-32-32v-304c0-16 12.8-32 32-32h448c19.2 0 32 12.8 32 32v304c0 19.2-12.8 32-32 32z m-326.4 64c0 3.2 3.2 6.4 6.4 6.4h192c3.2 0 6.4-3.2 6.4-6.4v-64h-208v64z m323.2-272h-73.6c-3.2-12.8-12.8-22.4-25.6-22.4s-25.6 9.6-25.6 22.4h-185.6c-3.2-12.8-12.8-22.4-25.6-22.4s-25.6 9.6-25.6 22.4H291.2V352h73.6v3.2c0 16 12.8 28.8 28.8 28.8s28.8-12.8 28.8-28.8v-3.2h182.4v3.2c0 16 12.8 28.8 28.8 28.8s28.8-12.8 28.8-28.8v-3.2H736v-54.4z"  horiz-adv-x="1024" />

    
    <glyph glyph-name="delete1" unicode="&#59153;" d="M775.314 471.771c0 29.257-21.943 51.2-51.2 51.2s-51.2-21.943-51.2-51.2v-438.857c0-29.257 21.943-51.2 51.2-51.2s51.2 21.943 51.2 51.2v438.857zM563.2 471.771c0 29.257-21.943 51.2-51.2 51.2-29.257 0-51.2-21.943-51.2-51.2v-438.857c0-29.257 21.943-51.2 51.2-51.2s51.2 21.943 51.2 51.2v438.857zM351.086 471.771c0 29.257-21.943 51.2-51.2 51.2s-51.2-21.943-51.2-51.2v-438.857c0-29.257 21.943-51.2 51.2-51.2s51.2 21.943 51.2 51.2v438.857zM885.029 581.486v-650.971c0-29.257-21.943-51.2-51.2-51.2h-636.343c-29.257 0-51.2 21.943-51.2 51.2v702.171h738.743v-51.2zM87.771 735.086c0 29.257 21.943 51.2 51.2 51.2h263.314v58.514c7.314 29.257 29.257 51.2 58.514 51.2h102.4c29.257 0 51.2-21.943 51.2-51.2v-51.2h263.314c29.257 0 51.2-21.943 51.2-51.2v-51.2h-841.143v43.886z"  horiz-adv-x="1024" />

    
    <glyph glyph-name="details" unicode="&#59154;" d="M0 384c0-70.692 57.308-128 128-128s128 57.308 128 128c0 70.692-57.308 128-128 128-70.692 0-128-57.308-128-128zM384 384c0-70.692 57.308-128 128-128s128 57.308 128 128c0 70.692-57.308 128-128 128-70.692 0-128-57.308-128-128zM768 384c0-70.692 57.308-128 128-128s128 57.308 128 128c0 70.692-57.308 128-128 128-70.692 0-128-57.308-128-128z"  horiz-adv-x="1024" />

    
    <glyph glyph-name="edit" unicode="&#59155;" d="M973.118-128h-909.516c-12.72 0-19.081 6.36-25.441 6.36s-19.081 0-19.081 6.36c-12.72 12.72-19.081 19.081-19.081 31.801l31.801 279.851c0 6.36 6.36 12.72 6.36 19.081l438.857 489.739c6.36 6.36 12.72 12.72 25.441 12.72 6.36 0 19.081 0 25.441-6.36l254.41-203.528c12.72-12.72 19.081-31.801 6.36-44.522l-432.497-489.739c-6.36-6.36-12.72-6.36-19.081-12.72l-89.043-25.441h725.068c25.441 0 44.522 0 44.522-19.081 0-25.441-19.081-44.522-44.522-44.522zM858.634 539.826l-311.652 248.050 50.882 57.242c25.441 31.801 63.602 50.882 108.124 50.882 31.801 0 63.602-12.72 89.043-31.801l95.404-82.683c57.242-44.522 63.602-127.205 12.72-184.447l-44.522-57.242z"  horiz-adv-x="1024" />

    
    <glyph glyph-name="snapshot" unicode="&#59156;" d="M339.2 172.8H224V582.4c0 12.8 6.4 25.6 12.8 38.4s19.2 12.8 38.4 12.8H768V512c0-19.2 12.8-32 32-32h19.2c19.2 0 32 12.8 32 32V633.6h51.2c32 0 51.2 19.2 51.2 51.2s-19.2 51.2-51.2 51.2h-51.2V819.2c0 19.2-12.8 32-32 32h-19.2c-19.2 0-32-12.8-32-32v-83.2H172.8c-12.8 0-25.6-6.4-38.4-12.8s-12.8-25.6-12.8-38.4v-512H32c-19.2 0-32-12.8-32-32v-19.2c0-19.2 12.8-32 32-32h83.2v-121.6c0-32 19.2-51.2 51.2-51.2s51.2 19.2 51.2 51.2v121.6h121.6c19.2 0 32 12.8 32 32v19.2c6.4 12.8-12.8 32-32 32z m652.8 166.4h-102.4v19.2c0 38.4-32 70.4-70.4 70.4H614.4c-38.4 0-70.4-32-70.4-70.4v-19.2H441.6c-19.2 0-32-12.8-32-32v-326.4c0-19.2 12.8-32 32-32h544c19.2 0 32 12.8 32 32V307.2c6.4 19.2-6.4 32-25.6 32z m-268.8-320c-83.2 0-147.2 64-147.2 147.2s64 147.2 147.2 147.2 147.2-64 147.2-147.2-64-147.2-147.2-147.2z m0 236.8c-51.2 0-96-44.8-96-96s44.8-96 96-96 96 44.8 96 96-44.8 96-96 96z"  horiz-adv-x="1024" />

    
    <glyph glyph-name="shu" unicode="&#59157;" d="M979.2 230.4H896V352c0 38.4-32 70.4-64 70.4H544V537.6h64c25.6 0 44.8 19.2 44.8 44.8V793.6c0 25.6-19.2 44.8-44.8 44.8h-192c-25.6 0-44.8-19.2-44.8-44.8v-211.2c0-25.6 19.2-44.8 44.8-44.8h44.8v-115.2H172.8c-38.4 0-64-32-64-70.4v-115.2h-64c-25.6 0-44.8-19.2-44.8-44.8v-211.2c0-25.6 19.2-44.8 44.8-44.8h198.4c25.6 0 44.8 19.2 44.8 44.8V192c0 25.6-19.2 44.8-44.8 44.8h-64V352h281.6v-115.2h-44.8c-25.6 0-44.8-19.2-44.8-44.8v-211.2c0-25.6 19.2-44.8 44.8-44.8h198.4c25.6 0 44.8 19.2 44.8 44.8V192c0 25.6-19.2 44.8-44.8 44.8h-64V352H832v-115.2h-44.8c-25.6 0-44.8-19.2-44.8-44.8v-211.2c0-25.6 19.2-44.8 44.8-44.8h198.4c25.6 0 44.8 19.2 44.8 44.8V192c-6.4 19.2-25.6 38.4-51.2 38.4z"  horiz-adv-x="1030" />

    
    <glyph glyph-name="set" unicode="&#59158;" d="M1017.639752 329.937888V444.42236l-127.204969 44.521739c-12.720497 31.801242-19.080745 50.881988-38.161491 89.043479l57.242236 127.204969L826.832298 787.875776l-127.204969-57.242236c-31.801242 12.720497-50.881988 19.080745-82.68323 38.161491l-50.881987 127.204969H451.57764l-50.881988-127.204969c-31.801242-19.080745-50.881988-25.440994-82.68323-38.161491l-127.204969 57.242236L108.124224 705.192547l57.242236-127.204969c-12.720497-31.801242-19.080745-50.881988-38.161491-82.68323l-127.204969-50.881988V323.57764l127.204969-44.521739c12.720497-31.801242 19.080745-50.881988 38.161491-89.043479l-57.242236-127.204969L190.807453-19.875776l127.204969 57.242236c31.801242-12.720497 50.881988-19.080745 89.043479-38.161491l44.521739-127.204969H572.42236l44.521739 127.204969c31.801242 12.720497 50.881988 19.080745 89.043479 38.161491l127.204969-57.242236 82.683229 82.683229-57.242236 127.204969c12.720497 31.801242 19.080745 50.881988 38.161491 89.043479l120.844721 50.881987zM508.819876 196.372671c-108.124224 0-190.807453 82.68323-190.807454 190.807453s82.68323 190.807453 190.807454 190.807454 190.807453-82.68323 190.807453-190.807454-82.68323-190.807453-190.807453-190.807453z"  horiz-adv-x="1024" />

    
    <glyph glyph-name="fold1" unicode="&#59159;" d="M64 448h896v-128H64z"  horiz-adv-x="1024" />

    
    <glyph glyph-name="icon_trade1" unicode="&#59160;" d="M887.466667 640H768V725.333333c0 38.4-29.866667 72.533333-72.533333 72.533334H328.533333c-38.4-4.266667-72.533333-38.4-72.533333-76.8v-85.333334H136.533333c-42.666667 4.266667-72.533333-29.866667-72.533333-68.266666v-520.533334c0-38.4 29.866667-72.533333 72.533333-72.533333h755.2c38.4 0 72.533333 29.866667 72.533334 72.533333V567.4666669999999c-4.266667 38.4-34.133333 72.533333-76.8 72.533333zM298.666667 721.066667c0 17.066667 12.8 29.866667 29.866666 29.866666h366.933334c17.066667 0 29.866667-12.8 29.866666-29.866666v-85.333334H298.666667v85.333334zM136.533333 597.333333h755.2c17.066667 0 29.866667-12.8 29.866667-29.866666v-238.933334h-128v38.4c0 25.6-17.066667 42.666667-42.666667 42.666667s-42.666667-17.066667-42.666666-42.666667v-38.4H320v38.4c0 25.6-17.066667 42.666667-42.666667 42.666667s-42.666667-17.066667-42.666666-42.666667v-38.4h-128V567.4666669999999c0 17.066667 12.8 29.866667 29.866666 29.866666z m750.933334-580.266666H136.533333c-17.066667 0-29.866667 12.8-29.866666 29.866666v238.933334h128v-38.4c0-25.6 17.066667-42.666667 42.666666-42.666667s42.666667 17.066667 42.666667 42.666667v38.4h379.733333v-38.4c0-25.6 17.066667-42.666667 42.666667-42.666667s42.666667 17.066667 42.666667 42.666667v38.4h128v-238.933334c4.266667-17.066667-8.533333-29.866667-25.6-29.866666z"  horiz-adv-x="1024" />

    
    <glyph glyph-name="icon_customer" unicode="&#59161;" d="M516.266667 302.93333299999995c76.8 38.4 132.266667 119.466667 132.266666 213.333334 0 132.266667-106.666667 238.933333-243.2 238.933333-132.266667 0-243.2-106.666667-243.2-238.933333 0-93.866667 55.466667-170.666667 132.266667-213.333334-136.533333-38.4-243.2-149.333333-273.066667-290.133333-4.266667-12.8 4.266667-21.333333 17.066667-25.6H42.666667c8.533333 0 17.066667 8.533333 21.333333 17.066667 34.133333 157.866667 174.933333 273.066667 341.333333 273.066666 166.4 0 307.2-115.2 341.333334-273.066666 4.266667-12.8 12.8-21.333333 25.6-17.066667 12.8 4.266667 17.066667 12.8 17.066666 25.6-34.133333 140.8-140.8 251.733333-273.066666 290.133333z m-311.466667 213.333334c0 106.666667 89.6 196.266667 200.533333 196.266666s200.533333-89.6 200.533334-196.266666-89.6-196.266667-200.533334-196.266667-200.533333 85.333333-200.533333 196.266667zM1002.666667 42.66666699999996c-29.866667 136.533333-136.533333 251.733333-268.8 290.133333 81.066667 38.4 132.266667 119.466667 132.266666 213.333333 0 132.266667-106.666667 238.933333-243.2 238.933334-12.8 0-21.333333-8.533333-21.333333-21.333334s8.533333-21.333333 21.333333-21.333333c110.933333 0 200.533333-89.6 200.533334-196.266667 0-85.333333-55.466667-162.133333-140.8-187.733333-12.8-4.266667-21.333333-17.066667-21.333334-29.866667 0-12.8 12.8-25.6 25.6-25.6 136.533333-25.6 251.733333-132.266667 277.333334-264.533333 0-8.533333 12.8-17.066667 21.333333-17.066667h4.266667c8.533333-4.266667 12.8 8.533333 12.8 21.333334z"  horiz-adv-x="1024" />

    
    <glyph glyph-name="monitor" unicode="&#59168;" d="M954.182 814.545h-884.364c-32.582 0-60.509-27.927-60.509-60.509v-532.945c0-32.582 27.927-60.509 60.509-60.509h118.691c4.655 0 9.309 2.327 11.636 4.655l195.491 256 107.055-88.436c4.655-4.655 13.964-4.655 18.618 2.327l169.891 188.509c18.618-18.618 46.545-32.582 76.8-32.582 58.182 0 107.055 48.873 107.055 107.055s-48.873 104.727-107.055 104.727-107.055-48.873-107.055-107.055c0-18.618 4.655-37.236 13.964-51.2l-165.236-183.855-107.055 88.436c-2.327 4.655-6.982 4.655-9.309 4.655-4.655 0-6.982-2.327-9.309-4.655l-202.473-260.655h-111.709c-18.618 0-32.582 13.964-32.582 32.582v532.945c0 18.618 13.964 32.582 32.582 32.582h884.364c18.618 0 32.582-13.964 32.582-32.582v-532.945c0-18.618-13.964-32.582-32.582-32.582h-442.182c-6.982 0-13.964-6.982-13.964-13.964v-193.164h-230.4c-6.982 0-13.964-6.982-13.964-13.964s6.982-13.964 13.964-13.964h486.4c6.982 0 13.964 6.982 13.964 13.964s-6.982 13.964-13.964 13.964h-230.4v179.2h430.545c32.582 0 60.509 27.927 60.509 60.509v532.945c0 32.582-27.927 60.509-60.509 60.509zM768 674.909c44.218 0 79.127-34.909 79.127-79.127s-34.909-79.127-79.127-79.127-79.127 34.909-79.127 79.127 34.909 79.127 79.127 79.127z"  horiz-adv-x="1024" />

    
    <glyph glyph-name="protection" unicode="&#59169;" d="M998.4 397.964c-6.982 0-13.964-6.982-13.964-13.964 0-260.655-211.782-472.436-472.436-472.436s-472.436 211.782-472.436 472.436 211.782 472.436 472.436 472.436c65.164 0 130.327-13.964 188.509-39.564 6.982-2.327 16.291 0 18.618 6.982 2.327 6.982 0 16.291-6.982 18.618-62.836 27.927-130.327 41.891-200.145 41.891-274.618 0-500.364-225.745-500.364-500.364s223.418-500.364 500.364-500.364c274.618 0 500.364 223.418 500.364 500.364 0 6.982-6.982 13.964-13.964 13.964zM218.764 395.636c-4.655 4.655-13.964 4.655-18.618 0s-4.655-13.964 0-18.618l209.455-209.455c2.327-2.327 6.982-4.655 9.309-4.655s6.982 2.327 9.309 4.655l488.727 488.727c4.655 4.655 4.655 13.964 0 18.618s-13.964 4.655-18.618 0l-479.418-477.091-200.145 197.818z"  horiz-adv-x="1024" />

    
    <glyph glyph-name="voltage" unicode="&#59170;" d="M828.509 365.382c0 174.545-141.964 316.509-316.509 316.509s-316.509-141.964-316.509-316.509c0-118.691 65.164-225.745 169.891-281.6 6.982-4.655 16.291 0 18.618 6.982 4.655 6.982 0 16.291-6.982 18.618-95.418 48.873-155.927 148.945-155.927 256 0 158.255 130.327 288.582 288.582 288.582 158.255 0 288.582-130.327 288.582-288.582 0-107.055-60.509-207.127-155.927-256-6.982-4.655-9.309-11.636-6.982-18.618 2.327-4.655 6.982-6.982 11.636-6.982 2.327 0 4.655 0 6.982 2.327 109.382 53.527 174.545 160.582 174.545 279.273zM512 388.655c-13.964 0-25.6-4.655-34.909-9.309l-116.364 116.364c-6.982 6.982-18.618 6.982-25.6 0s-6.982-18.618 0-25.6l116.364-116.364c-6.982-9.309-9.309-23.273-9.309-34.909 0-39.564 30.255-69.818 69.818-69.818s69.818 30.255 69.818 69.818-30.255 69.818-69.818 69.818zM512 861.091c-272.291 0-495.709-221.091-495.709-495.709 0-197.818 118.691-377.018 300.218-456.145 6.982-2.327 16.291 0 18.618 6.982 2.327 6.982 0 16.291-6.982 18.618-172.218 74.473-283.927 244.364-283.927 430.545 0 258.327 209.455 467.782 467.782 467.782 258.327 0 467.782-209.455 467.782-467.782 0-188.509-111.709-358.4-286.255-430.545-6.982-2.327-9.309-11.636-6.982-18.618 2.327-4.655 6.982-9.309 13.964-9.309h4.655c183.855 76.8 302.545 256 302.545 456.145 0 274.618-223.418 498.036-495.709 498.036z"  horiz-adv-x="1024" />

    
    <glyph glyph-name="vomume" unicode="&#59171;" d="M1000.727 630.691h-55.855v116.364c0 32.582-27.927 60.509-60.509 60.509h-698.182c-32.582 0-60.509-27.927-60.509-60.509v-612.073c0-32.582 27.927-60.509 60.509-60.509h698.182c32.582 0 60.509 27.927 60.509 60.509v116.364h55.855c6.982 0 13.964 6.982 13.964 13.964v351.418c0 6.982-6.982 13.964-13.964 13.964zM986.764 276.945h-55.855c-6.982 0-13.964-6.982-13.964-13.964v-130.327c0-18.618-13.964-32.582-32.582-32.582h-698.182c-18.618 0-32.582 13.964-32.582 32.582v614.4c0 18.618 13.964 32.582 32.582 32.582h698.182c18.618 0 32.582-13.964 32.582-32.582v-130.327c0-6.982 6.982-13.964 13.964-13.964h55.855v-325.818zM814.545-11.636h-744.727c-18.618 0-32.582 13.964-32.582 32.582v602.764c0 6.982-6.982 13.964-13.964 13.964s-13.964-6.982-13.964-13.964v-602.764c0-32.582 27.927-60.509 60.509-60.509h744.727c6.982 0 13.964 6.982 13.964 13.964s-6.982 13.964-13.964 13.964zM349.091 640c-6.982 0-13.964-6.982-13.964-13.964v-372.364c0-6.982 6.982-13.964 13.964-13.964s13.964 6.982 13.964 13.964v372.364c0 6.982-6.982 13.964-13.964 13.964zM535.273 640c-6.982 0-13.964-6.982-13.964-13.964v-372.364c0-6.982 6.982-13.964 13.964-13.964s13.964 6.982 13.964 13.964v372.364c0 6.982-6.982 13.964-13.964 13.964zM721.455 640c-6.982 0-13.964-6.982-13.964-13.964v-372.364c0-6.982 6.982-13.964 13.964-13.964s13.964 6.982 13.964 13.964v372.364c0 6.982-6.982 13.964-13.964 13.964z"  horiz-adv-x="1024" />

    
    <glyph glyph-name="temperature" unicode="&#59172;" d="M751.709 367.709c-6.982 2.327-9.309 6.982-9.309 13.964v81.455h72.145c6.982 0 13.964 6.982 13.964 13.964s-6.982 13.964-13.964 13.964h-72.145v88.436h72.145c6.982 0 13.964 6.982 13.964 13.964s-6.982 13.964-13.964 13.964h-72.145v60.509c0 9.309 0 20.945-2.327 30.255h74.473c6.982 0 13.964 6.982 13.964 13.964s-6.982 11.636-13.964 11.636h-69.818c-2.327 0-6.982-2.327-9.309-2.327-25.6 95.418-116.364 165.236-223.418 165.236-128 0-230.4-97.745-230.4-218.764v-286.255c0-4.655-4.655-9.309-9.309-13.964-97.745-51.2-153.6-130.327-153.6-214.109 0-148.945 176.873-272.291 393.309-272.291 216.436 0 393.309 121.018 393.309 272.291 0 83.782-55.855 162.909-153.6 214.109zM512-90.764c-202.473 0-365.382 109.382-365.382 244.364 0 74.473 51.2 144.291 139.636 190.836 13.964 6.982 23.273 23.273 23.273 37.236v286.255c0 104.727 90.764 190.836 202.473 190.836s202.473-86.109 202.473-190.836v-286.255c0-16.291 9.309-30.255 23.273-37.236 88.436-46.545 139.636-116.364 139.636-190.836 0-134.982-162.909-244.364-365.382-244.364zM512 653.964c-6.982 0-13.964-6.982-13.964-13.964v-512c0-6.982 6.982-13.964 13.964-13.964s13.964 6.982 13.964 13.964v512c0 6.982-6.982 13.964-13.964 13.964z"  horiz-adv-x="1024" />

    
    <glyph glyph-name="vomume_tab" unicode="&#59173;" d="M950.857 691.2h-65.829v131.657c0 14.629-14.629 36.571-36.571 36.571h-775.314c-14.629 0-36.571-21.943-36.571-36.571v-877.714c0-14.629 14.629-36.571 36.571-36.571h782.629c14.629 0 36.571 14.629 36.571 36.571v131.657h58.514c14.629 0 36.571 14.629 36.571 36.571v548.571c0 14.629-21.943 29.257-36.571 29.257zM914.286 142.629h-65.829c-14.629 0-36.571-14.629-36.571-36.571v-131.657h-702.171v811.886h716.8v-131.657c0-14.629 14.629-36.571 36.571-36.571h65.829v-475.429zM314.514 603.429h65.829v-438.857h-65.829zM533.943 603.429h65.829v-438.857h-65.829z"  horiz-adv-x="1024" />

    
    <glyph glyph-name="temperature_tab" unicode="&#59174;" d="M746.057143 391.314286v36.571428h36.571428c21.942857 0 36.571429 14.628571 36.571429 36.571429s-14.628571 36.571429-36.571429 36.571428h-36.571428v36.571429h36.571428c21.942857 0 36.571429 14.628571 36.571429 36.571429s-14.628571 36.571429-36.571429 36.571428h-36.571428v29.257143h36.571428c21.942857 0 36.571429 14.628571 36.571429 36.571429s-14.628571 36.571429-36.571429 36.571428H731.428571c-29.257143 87.771429-117.028571 146.285714-219.428571 146.285714-124.342857 0-234.057143-102.4-234.057143-219.428571v-248.685714c-95.085714-51.2-146.285714-124.342857-146.285714-212.114286 0-146.285714 168.228571-270.628571 380.342857-270.628571s380.342857 117.028571 380.342857 270.628571c0 80.457143-58.514286 160.914286-146.285714 212.114286zM512-18.285714c-168.228571 0-307.2 87.771429-307.2 197.485714 0 58.514286 43.885714 109.714286 109.714286 146.285714 29.257143 14.628571 36.571429 29.257143 36.571428 58.514286V640c0 80.457143 73.142857 146.285714 160.914286 146.285714 87.771429 0 160.914286-65.828571 160.914286-146.285714V384c0-21.942857 14.628571-43.885714 36.571428-58.514286 73.142857-36.571429 109.714286-95.085714 109.714286-146.285714 0-109.714286-138.971429-197.485714-307.2-197.485714zM512 647.314286c-21.942857 0-36.571429-14.628571-36.571429-36.571429v-460.8c0-21.942857 14.628571-36.571429 36.571429-36.571428s36.571429 14.628571 36.571429 36.571428V610.742857c0 21.942857-14.628571 36.571429-36.571429 36.571429z"  horiz-adv-x="1024" />

    
    <glyph glyph-name="voltage_tab" unicode="&#59175;" d="M819.2 369.371c0 168.229-138.971 307.2-307.2 307.2s-307.2-138.971-307.2-307.2c0-117.029 65.829-219.429 160.914-270.629 14.629-7.314 29.257 0 36.571 14.629 7.314 14.629 0 29.257-14.629 36.571-80.457 43.886-131.657 124.343-131.657 219.429 0 138.971 109.714 248.686 248.686 248.686s248.686-109.714 248.686-248.686c0-95.086-51.2-175.543-131.657-219.429-14.629-7.314-21.943-21.943-14.629-36.571 14.629-14.629 21.943-21.943 29.257-21.943h14.629c102.4 58.514 168.229 160.914 168.229 277.943zM512 391.314c-7.314 0-14.629-7.314-21.943-7.314l-102.4 109.714c-14.629 14.629-29.257 14.629-43.886 0s-14.629-29.257 0-43.886l109.714-109.714c0-7.314-7.314-14.629-7.314-21.943 0-36.571 29.257-65.829 65.829-65.829s65.829 29.257 65.829 65.829-29.257 73.143-65.829 73.143zM512 837.486c-256 0-468.114-212.114-468.114-468.114 0-190.171 109.714-358.4 285.257-431.543 14.629-7.314 29.257 0 36.571 14.629s0 29.257-14.629 36.571c-153.6 65.829-248.686 212.114-248.686 373.029 0 226.743 182.857 409.6 409.6 409.6s409.6-182.857 409.6-409.6c0-168.229-95.086-314.514-248.686-380.343-14.629 0-21.943-14.629-14.629-29.257 7.314-14.629 14.629-14.629 29.257-14.629h14.629c175.543 73.143 285.257 241.371 285.257 431.543-7.314 256-219.429 468.114-475.429 468.114z"  horiz-adv-x="1024" />

    
    <glyph glyph-name="protection_tab" unicode="&#59176;" d="M950.857143 420.571429c-21.942857 0-36.571429-14.628571-36.571429-36.571429 0-219.428571-182.857143-402.285714-402.285714-402.285714S109.714286 164.571429 109.714286 384 292.571429 786.285714 512 786.285714c58.514286 0 109.714286-14.628571 160.914286-36.571428 21.942857-7.314286 36.571429 0 51.2 21.942857 7.314286 14.628571 0 36.571429-21.942857 51.2C643.657143 844.8 577.828571 859.428571 512 859.428571 248.685714 859.428571 36.571429 647.314286 36.571429 384s212.114286-475.428571 475.428571-475.428571 475.428571 212.114286 475.428571 475.428571c0 21.942857-14.628571 36.571429-36.571428 36.571429zM329.142857 420.571429c-14.628571 14.628571-36.571429 14.628571-51.2 0s-14.628571-36.571429 0-51.2L438.857143 208.457143c0-7.314286 7.314286-7.314286 21.942857-7.314286s21.942857 0 29.257143 7.314286l365.714286 365.714286c14.628571 14.628571 14.628571 36.571429 0 51.2s-36.571429 14.628571-51.2 0L460.8 288.914286 329.142857 420.571429z"  horiz-adv-x="1024" />

    
    <glyph glyph-name="monitor_tab" unicode="&#59177;" d="M906.971429 793.6H117.028571C73.142857 793.6 36.571429 757.028571 36.571429 713.142857V237.714286c0-43.885714 36.571429-80.457143 80.457142-80.457143H219.428571c14.628571 0 21.942857 7.314286 29.257143 14.628571L409.6 384l80.457143-65.828571c14.628571-14.628571 36.571429-7.314286 51.2 7.314285l138.971428 153.6c14.628571-14.628571 36.571429-21.942857 58.514286-21.942857 65.828571 0 117.028571 51.2 117.028572 117.028572s-51.2 124.342857-117.028572 124.342857c-65.828571 0-117.028571-51.2-117.028571-117.028572 0-14.628571 0-29.257143 7.314285-43.885714L504.685714 398.628571l-73.142857 65.828572c-7.314286 7.314286-21.942857 7.314286-29.257143 7.314286-7.314286 0-21.942857-7.314286-21.942857-14.628572L204.8 230.4H117.028571s-7.314286 0-7.314285 7.314286V713.142857s0 7.314286 7.314285 7.314286h797.257143s7.314286 0 7.314286-7.314286V237.714286s0-7.314286-7.314286-7.314286H512c-21.942857 0-36.571429-14.628571-36.571429-36.571429v-146.285714H292.571429c-21.942857 0-36.571429-14.628571-36.571429-36.571428s14.628571-36.571429 36.571429-36.571429h438.857142c21.942857 0 36.571429 14.628571 36.571429 36.571429s-14.628571 36.571429-36.571429 36.571428H548.571429v109.714286h358.4c43.885714 0 80.457143 36.571429 80.457142 80.457143V713.142857c0 43.885714-36.571429 80.457143-80.457142 80.457143z m-168.228572-168.228571c29.257143 0 43.885714-21.942857 43.885714-43.885715s-14.628571-51.2-43.885714-51.2-43.885714 21.942857-43.885714 43.885715 21.942857 51.2 43.885714 51.2z"  horiz-adv-x="1024" />

    
    <glyph glyph-name="humidity" unicode="&#59178;" d="M567.855-46.545c-46.545-27.927-111.709-44.218-167.564-44.218-186.182 0-337.455 139.636-337.455 311.855 0 155.927 276.945 546.909 337.455 628.364 32.582-44.218 134.982-181.527 214.109-309.527 4.655-6.982 11.636-9.309 18.618-4.655 6.982 4.655 9.309 11.636 4.655 18.618-95.418 155.927-225.745 325.818-225.745 328.145-2.327 2.327-6.982 4.655-11.636 4.655s-9.309-2.327-11.636-4.655c-13.964-20.945-353.745-479.418-353.745-660.945 0-188.509 162.909-339.782 365.382-339.782 60.509 0 132.655 18.618 181.527 48.873 6.982 4.655 9.309 11.636 4.655 18.618-4.655 6.982-11.636 9.309-18.618 4.655zM758.691 595.782c-4.655 6.982-16.291 6.982-23.273 0-9.309-11.636-230.4-311.855-230.4-430.545 0-123.345 109.382-225.745 242.036-225.745s242.036 100.073 242.036 225.745c0 118.691-221.091 418.909-230.4 430.545zM747.055-32.582c-118.691 0-214.109 88.436-214.109 197.818 0 95.418 167.564 335.127 214.109 397.964 46.545-62.836 214.109-302.545 214.109-397.964 0-109.382-95.418-197.818-214.109-197.818zM174.545 281.6c-6.982 0-13.964-4.655-13.964-13.964 0-2.327-11.636-216.436 162.909-246.691h2.327c6.982 0 11.636 4.655 13.964 11.636 2.327 6.982-4.655 13.964-11.636 16.291-148.945 25.6-139.636 209.455-139.636 218.764 0 6.982-6.982 13.964-13.964 13.964zM681.891 69.818c-76.8 44.218-46.545 118.691-44.218 121.018 2.327 6.982 0 16.291-6.982 18.618-6.982 2.327-16.291 0-18.618-6.982 0 0-41.891-100.073 55.855-158.255 2.327-2.327 4.655-2.327 6.982-2.327 4.655 0 9.309 2.327 11.636 6.982 4.655 9.309 2.327 16.291-4.655 20.945z"  horiz-adv-x="1024" />

    
    <glyph glyph-name="door-control" unicode="&#59179;" d="M947.2 886.691h-875.055c0-2.327-2.327-2.327-2.327-2.327h-2.327l-2.327-2.327v-2.327c0-2.327-2.327-4.655-2.327-4.655v-875.055s0-2.327 2.327-2.327l4.655-4.655h4.655l653.964-109.382c2.327 0 6.982 0 9.309 2.327 2.327 2.327 4.655 6.982 4.655 11.636v95.418h202.473c6.982 0 13.964 6.982 13.964 13.964v865.745c2.327 6.982-4.655 13.964-11.636 13.964zM714.473-88.436l-623.709 104.727v840.145l623.709-104.727v-840.145zM933.236 18.618h-188.509v744.727c0 6.982-4.655 11.636-11.636 13.964l-486.4 81.455h686.545v-840.145zM565.527 614.4c-6.982 0-13.964-6.982-13.964-13.964v-162.909c0-6.982 6.982-13.964 13.964-13.964s13.964 6.982 13.964 13.964v162.909c0 9.309-4.655 13.964-13.964 13.964z"  horiz-adv-x="1024" />

    
    <glyph glyph-name="smoke-detector" unicode="&#59180;" d="M868.073 437.527c-44.218 41.891-86.109 81.455-86.109 141.964 0 125.673 186.182 209.455 186.182 211.782 6.982 2.327 9.309 11.636 6.982 18.618-2.327 6.982-11.636 9.309-18.618 6.982-9.309-4.655-204.8-93.091-204.8-235.055 0-72.145 48.873-116.364 95.418-162.909 48.873-46.545 100.073-93.091 100.073-172.218 0-153.6-186.182-265.309-188.509-267.636-6.982-4.655-9.309-11.636-4.655-18.618 2.327-4.655 6.982-6.982 11.636-6.982 2.327 0 4.655 0 6.982 2.327 11.636 2.327 204.8 118.691 204.8 288.582 0 90.764-58.182 146.618-109.382 193.164zM614.4 791.273c6.982 2.327 9.309 11.636 6.982 18.618-2.327 6.982-11.636 9.309-18.618 6.982-9.309-4.655-204.8-93.091-204.8-235.055 0-72.145 48.873-116.364 95.418-162.909 48.873-46.545 100.073-93.091 100.073-172.218 0-153.6-186.182-265.309-188.509-267.636-6.982-4.655-9.309-11.636-4.655-18.618 2.327-4.655 6.982-6.982 11.636-6.982 2.327 0 4.655 0 6.982 2.327 9.309 4.655 202.473 121.018 202.473 290.909 0 90.764-58.182 146.618-109.382 193.164-44.218 41.891-86.109 81.455-86.109 141.964 2.327 123.345 188.509 207.127 188.509 209.455zM160.582 437.527c-44.218 41.891-86.109 81.455-86.109 141.964 0 125.673 186.182 209.455 186.182 211.782 6.982 2.327 9.309 11.636 6.982 18.618-2.327 6.982-11.636 9.309-18.618 6.982-6.982-4.655-202.473-93.091-202.473-237.382 0-72.145 48.873-116.364 95.418-162.909 48.873-46.545 100.073-93.091 100.073-172.218 0-153.6-186.182-265.309-188.509-267.636-6.982-4.655-9.309-11.636-4.655-18.618 2.327-4.655 6.982-6.982 11.636-6.982 2.327 0 4.655 0 6.982 2.327 9.309 4.655 202.473 121.018 202.473 290.909 0 90.764-58.182 146.618-109.382 193.164z"  horiz-adv-x="1024" />

    
    <glyph glyph-name="manage_tab" unicode="&#59181;" d="M972.8 501.028571L892.342857 530.285714v14.628572l36.571429 80.457143c14.628571 29.257143 7.314286 58.514286-14.628572 80.457142l-73.142857 73.142858c-14.628571 14.628571-29.257143 21.942857-51.2 21.942857-7.314286 0-21.942857 0-29.257143-7.314286l-87.771428-36.571429h-7.314286L658.285714 764.342857 629.028571 844.8C621.714286 874.057143 592.457143 896 563.2 896H460.8c-29.257143 0-58.514286-21.942857-65.828571-51.2L365.714286 764.342857h-14.628572l-80.457143 29.257143c-14.628571 7.314286-21.942857 7.314286-29.257142 7.314286-21.942857 0-43.885714-7.314286-58.514286-21.942857l-73.142857-73.142858c-14.628571-14.628571-21.942857-51.2-7.314286-80.457142l36.571429-80.457143V530.285714l-87.771429-29.257143c-29.257143-7.314286-51.2-36.571429-51.2-65.828571v-102.4c0-29.257143 21.942857-58.514286 51.2-65.828571l80.457143-29.257143v-14.628572l-36.571429-80.457143c-14.628571-29.257143-7.314286-58.514286 14.628572-80.457142l73.142857-73.142858c14.628571-14.628571 29.257143-21.942857 51.2-21.942857 7.314286 0 21.942857 0 29.257143 7.314286l80.457143 36.571429h14.628571l29.257143-80.457143c14.628571-36.571429 43.885714-58.514286 73.142857-58.514286h102.4c29.257143 0 58.514286 21.942857 65.828571 51.2l29.257143 80.457143h14.628572l80.457143-36.571429c7.314286-7.314286 21.942857-7.314286 29.257142-7.314285 21.942857 0 36.571429 7.314286 51.2 21.942857l73.142858 73.142857c21.942857 21.942857 29.257143 58.514286 14.628571 80.457143l-36.571429 80.457143v14.628571l80.457143 29.257143c36.571429 14.628571 58.514286 43.885714 58.514286 73.142857V435.2c0 29.257143-21.942857 58.514286-51.2 65.828571zM950.857143 332.8l-109.714286-36.571429c-14.628571-29.257143-21.942857-43.885714-29.257143-73.142857l51.2-109.714285-73.142857-73.142858-109.714286 51.2c-29.257143-14.628571-43.885714-21.942857-73.142857-29.257142L563.2-54.857143H460.8l-36.571429 109.714286c-29.257143 14.628571-43.885714 21.942857-73.142857 29.257143l-109.714285-51.2-73.142858 73.142857L219.428571 215.771429c-14.628571 29.257143-21.942857 43.885714-29.257142 73.142857L73.142857 332.8V435.2l109.714286 36.571429c14.628571 29.257143 21.942857 43.885714 29.257143 73.142857l-43.885715 109.714285 73.142858 73.142858 102.4-51.2c29.257143 14.628571 43.885714 21.942857 73.142857 29.257142L460.8 822.857143h102.4l36.571429-109.714286c29.257143-14.628571 43.885714-21.942857 73.142857-29.257143l109.714285 51.2 73.142858-73.142857-51.2-109.714286c14.628571-29.257143 21.942857-43.885714 29.257142-73.142857l117.028572-43.885714v-102.4zM512 588.8C402.285714 588.8 307.2 493.714286 307.2 384c0-109.714286 95.085714-204.8 204.8-204.8 109.714286 0 204.8 95.085714 204.8 204.8 0 109.714286-95.085714 204.8-204.8 204.8z m0-336.457143C438.857143 252.342857 380.342857 310.857143 380.342857 384S438.857143 515.657143 512 515.657143 643.657143 457.142857 643.657143 384 585.142857 252.342857 512 252.342857z"  horiz-adv-x="1024" />

    
    <glyph glyph-name="_undervoltage_ovalcopy" unicode="&#59183;" d="M512 627.2c-150.4 0-272-121.6-272-272 0-76.8 32-153.6 92.8-204.8 6.4-6.4 16-6.4 22.4 0 6.4 6.4 6.4 16 0 22.4-51.2 44.8-80 112-80 179.2 0 131.2 108.8 240 240 240s240-108.8 240-240c0-73.6-32-140.8-89.6-188.8-6.4-6.4-6.4-16-3.2-22.4 3.2-3.2 6.4-6.4 12.8-6.4 3.2 0 6.4 0 9.6 3.2 64 51.2 102.4 128 102.4 211.2C784 505.6 662.4 627.2 512 627.2zM665.6 307.2h3.2c6.4 0 12.8 6.4 16 12.8 3.2 12.8 3.2 22.4 3.2 35.2 0 96-80 176-176 176s-176-80-176-176c0-12.8 0-22.4 3.2-35.2 3.2-9.6 9.6-12.8 19.2-12.8 9.6 3.2 12.8 9.6 12.8 19.2-3.2 9.6-3.2 19.2-3.2 28.8 0 80 64 144 144 144s144-64 144-144c0-9.6 0-19.2-3.2-28.8 0-6.4 3.2-16 12.8-19.2zM528 355.2c-9.6 0-16-3.2-25.6-6.4l-80 51.2c-6.4 6.4-16 3.2-22.4-3.2-6.4-6.4-3.2-16 3.2-22.4l76.8-51.2v-16c0-25.6 22.4-48 48-48s48 22.4 48 48-22.4 48-48 48z"  horiz-adv-x="1024" />

    
    <glyph glyph-name="bess1" unicode="&#59182;" d="M993.745 535.273c0 2.327-2.327 4.655-4.655 4.655l-232.727 232.727c-2.327 4.655-6.982 6.982-11.636 6.982h-465.455c-4.655 0-9.309-2.327-11.636-4.655l-232.727-232.727c-2.327-2.327-2.327-4.655-4.655-4.655 0-2.327-2.327-4.655-2.327-6.982v-523.636c0-11.636 9.309-18.618 18.618-18.618h930.909c9.309 0 18.618 6.982 18.618 18.618v521.309c0 4.655-2.327 4.655-2.327 6.982zM286.255 744.727h451.491l197.818-197.818h-847.127l197.818 197.818zM65.164 23.273v488.727h896v-488.727h-896zM861.091 256h-698.182c-9.309 0-18.618-6.982-18.618-18.618s9.309-16.291 18.618-16.291h698.182c9.309 0 18.618 6.982 18.618 18.618s-9.309 16.291-18.618 16.291z"  horiz-adv-x="1024" />

    
    <glyph glyph-name="gateway" unicode="&#59184;" d="M975.127 300.218h-128v532.945c0 9.309-6.982 18.618-18.618 18.618s-18.618-6.982-18.618-18.618v-532.945h-761.018c-9.309 0-18.618-6.982-18.618-18.618v-346.764c0-9.309 6.982-18.618 18.618-18.618h926.255c9.309 0 18.618 6.982 18.618 18.618v346.764c-2.327 11.636-9.309 18.618-18.618 18.618zM956.509-46.545h-889.018v311.855h891.345v-311.855z"  horiz-adv-x="1024" />

    
    <glyph glyph-name="gateway_search_tab" unicode="&#59185;" d="M950.857143 566.857143h-204.8C738.742857 713.142857 621.714286 830.171429 468.114286 830.171429S204.8 713.142857 197.485714 566.857143H73.142857c-21.942857 0-36.571429-14.628571-36.571428-36.571429v-570.514285c0-21.942857 14.628571-36.571429 36.571428-36.571429h877.714286c21.942857 0 36.571429 14.628571 36.571428 36.571429V530.285714c0 21.942857-14.628571 36.571429-36.571428 36.571429zM468.114286 757.028571c109.714286 0 204.8-95.085714 204.8-204.8v-14.628571c0-29.257143-7.314286-51.2-21.942857-73.142857-7.314286-14.628571-14.628571-21.942857-14.628572-36.571429l-7.314286-7.314285c-7.314286-7.314286-14.628571-7.314286-21.942857-14.628572 0-7.314286-7.314286-7.314286-7.314285-14.628571-7.314286 0-14.628571-7.314286-21.942858-7.314286 0-7.314286-7.314286-7.314286-14.628571-14.628571-7.314286 0-7.314286-7.314286-14.628571-7.314286s-14.628571-7.314286-29.257143-7.314286h-14.628572c-14.628571 0-29.257143-7.314286-36.571428-7.314286-14.628571 0-29.257143 0-36.571429 7.314286h-14.628571c-7.314286 0-14.628571 7.314286-21.942857 7.314286-7.314286 0-7.314286 7.314286-14.628572 7.314286-7.314286 7.314286-14.628571 7.314286-21.942857 14.628571-7.314286 0-7.314286 7.314286-14.628571 7.314286s-7.314286 7.314286-14.628572 7.314285c-7.314286 14.628571-7.314286 21.942857-14.628571 21.942858l-7.314286 7.314285C299.885714 442.514286 292.571429 449.828571 292.571429 457.142857c-14.628571 29.257143-21.942857 51.2-21.942858 73.142857v14.628572c-7.314286 117.028571 87.771429 212.114286 197.485715 212.114285z m446.171428-753.371428h-804.571428V493.714286h87.771428c7.314286-29.257143 21.942857-58.514286 36.571429-80.457143 0 0 0-7.314286 7.314286-7.314286 0-7.314286 7.314286-14.628571 14.628571-21.942857 7.314286-7.314286 7.314286-14.628571 14.628571-21.942857l14.628572-14.628572c7.314286-7.314286 14.628571-14.628571 21.942857-14.628571 7.314286-7.314286 7.314286-7.314286 14.628571-7.314286 14.628571-14.628571 21.942857-14.628571 29.257143-21.942857 7.314286 0 14.628571-7.314286 14.628572-7.314286 14.628571-7.314286 21.942857-7.314286 36.571428-7.314285 7.314286 0 7.314286 0 14.628572-7.314286 14.628571 0 36.571429-7.314286 51.2-7.314286 14.628571 0 36.571429 0 51.2 7.314286 7.314286 0 7.314286 0 14.628571 7.314286 14.628571 0 21.942857 7.314286 36.571429 7.314285 7.314286 0 14.628571 7.314286 14.628571 7.314286 14.628571 7.314286 21.942857 7.314286 29.257143 14.628572 7.314286 0 7.314286 7.314286 14.628571 7.314285 0 0 7.314286 0 7.314286 7.314286v-7.314286l138.971429-131.657143c7.314286-7.314286 14.628571-7.314286 29.257143-7.314285 7.314286 0 21.942857 0 29.257142 7.314285 14.628571 14.628571 14.628571 36.571429 0 51.2L694.857143 384h-7.314286c7.314286 7.314286 7.314286 14.628571 14.628572 21.942857 0 0 0 7.314286 7.314285 7.314286 14.628571 21.942857 21.942857 51.2 29.257143 80.457143h175.542857v-490.057143z"  horiz-adv-x="1024" />

    
    <glyph glyph-name="tool" unicode="&#59186;" d="M904.533333 251.733333c-68.266667 68.266667-170.666667 68.266667-243.2 12.8L541.866667 384l187.733333 187.733333 29.866667-29.866666L938.666667 716.8l-89.6 89.6-179.2-179.2 25.6-25.6-183.466667-187.733333-119.466667 119.466666c55.466667 72.533333 51.2 174.933333-17.066666 238.933334-46.933333 51.2-119.466667 68.266667-187.733334 42.666666-8.533333 0-12.8-8.533333-12.8-12.8 0-8.533333 0-12.8 4.266667-21.333333l72.533333-72.533333-68.266666-64-72.533334 68.266666c-4.266667 8.533333-12.8 8.533333-21.333333 8.533334-4.266667-4.266667-12.8-8.533333-12.8-17.066667-25.6-64-8.533333-136.533333 42.666667-187.733333 34.133333-34.133333 81.066667-55.466667 128-55.466667 42.666667 0 81.066667 17.066667 115.2 42.666667l119.466666-119.466667-145.066666-145.066667-34.133334 34.133334c-4.266667 4.266667-8.533333 4.266667-17.066666 4.266666s-12.8-4.266667-17.066667-4.266666l-153.6-153.6c-38.4-38.4-38.4-98.133333 0-136.533334 17.066667-17.066667 42.666667-29.866667 68.266667-29.866666 25.6 0 46.933333 8.533333 68.266666 29.866666l153.6 153.6c8.533333 8.533333 8.533333 21.333333 0 29.866667l-38.4 38.4 145.066667 145.066667 119.466667-119.466667c-55.466667-72.533333-51.2-174.933333 17.066666-238.933333 34.133333-34.133333 81.066667-51.2 128-51.2 21.333333 0 42.666667 4.266667 64 12.8 8.533333 4.266667 12.8 8.533333 12.8 17.066666s0 12.8-4.266666 21.333334l-72.533334 72.533333 68.266667 68.266667 72.533333-72.533334c4.266667-4.266667 12.8-8.533333 21.333334-4.266666 8.533333 0 12.8 8.533333 17.066666 12.8 17.066667 59.733333 0 132.266667-51.2 183.466666zM345.6 546.133333c-51.2-51.2-145.066667-51.2-196.266667 0-29.866667 29.866667-42.666667 68.266667-38.4 110.933334L166.4 597.333333c8.533333-8.533333 21.333333-8.533333 29.866667 0l98.133333 98.133334c4.266667 4.266667 8.533333 8.533333 8.533333 12.8S298.666667 721.066667 294.4 725.333333L234.666667 785.066667c42.666667 4.266667 81.066667-8.533333 110.933333-38.4 25.6-25.6 42.666667-59.733333 42.666667-98.133334s-17.066667-76.8-42.666667-102.4zM221.866667 12.8c-21.333333-21.333333-55.466667-21.333333-72.533334 0-21.333333 21.333333-21.333333 55.466667 0 72.533333l140.8 140.8 72.533334-72.533333-140.8-140.8zM857.6 170.666667c-8.533333 8.533333-21.333333 8.533333-29.866667 0l-98.133333-98.133334c-8.533333-8.533333-8.533333-21.333333 0-29.866666l59.733333-59.733334c-42.666667-4.266667-81.066667 8.533333-110.933333 38.4-55.466667 55.466667-55.466667 145.066667 0 196.266667 25.6 25.6 64 42.666667 98.133333 42.666667s72.533333-12.8 98.133334-42.666667c29.866667-29.866667 42.666667-68.266667 38.4-110.933333L857.6 170.666667z"  horiz-adv-x="1024" />

    
    <glyph glyph-name="thermalrunaway_nor" unicode="&#59193;" d="M512 384m-512 0a512 512 0 1 1 1024 0 512 512 0 1 1-1024 0ZM608.256 396.288c0-36.864-40.96-65.536-40.96-65.536-6.144-4.096-6.144-12.288-2.048-16.384 2.048-4.096 6.144-6.144 10.24-6.144 2.048 0 4.096 0 6.144 2.048 2.048 2.048 51.2 36.864 51.2 86.016 0 28.672-14.336 45.056-26.624 57.344-10.24 12.288-18.432 20.48-18.432 32.768 0 28.672 38.912 49.152 38.912 49.152 6.144 4.096 8.192 10.24 6.144 16.384-4.096 6.144-10.24 8.192-16.384 6.144-2.048-2.048-53.248-26.624-53.248-71.68 0-22.528 12.288-36.864 24.576-49.152 10.24-12.288 20.48-22.528 20.48-40.96zM518.144 396.288c0-36.864-38.912-65.536-40.96-65.536-6.144-4.096-6.144-12.288-2.048-16.384 2.048-4.096 6.144-6.144 10.24-6.144 2.048 0 4.096 0 6.144 2.048 2.048 2.048 51.2 36.864 51.2 86.016 0 28.672-14.336 45.056-26.624 57.344-10.24 12.288-18.432 20.48-18.432 32.768 0 28.672 38.912 49.152 38.912 49.152 6.144 4.096 8.192 10.24 6.144 16.384-4.096 6.144-10.24 8.192-16.384 6.144-4.096 0-55.296-26.624-55.296-71.68 0-22.528 12.288-36.864 24.576-49.152 12.288-12.288 22.528-22.528 22.528-40.96zM425.984 396.288c0-36.864-38.912-65.536-40.96-65.536-6.144-4.096-6.144-12.288-2.048-16.384 2.048-4.096 6.144-6.144 10.24-6.144 2.048 0 4.096 0 6.144 2.048 2.048 2.048 51.2 36.864 51.2 86.016 0 28.672-14.336 45.056-26.624 57.344-10.24 12.288-18.432 20.48-18.432 32.768 0 28.672 38.912 49.152 38.912 49.152 6.144 4.096 8.192 10.24 6.144 16.384-4.096 6.144-10.24 8.192-16.384 6.144-2.048-2.048-53.248-26.624-53.248-71.68 0-22.528 12.288-36.864 24.576-49.152 10.24-12.288 20.48-22.528 20.48-40.96zM358.4 257.024h307.2c6.144 0 12.288 6.144 12.288 12.288s-6.144 12.288-12.288 12.288h-307.2c-6.144 0-12.288-6.144-12.288-12.288s6.144-12.288 12.288-12.288zM665.6 232.448h-307.2c-6.144 0-12.288-6.144-12.288-12.288s6.144-12.288 12.288-12.288h307.2c6.144 0 12.288 6.144 12.288 12.288s-6.144 12.288-12.288 12.288z"  horiz-adv-x="1024" />

    
    <glyph glyph-name="balance_nor" unicode="&#59194;" d="M512 384m-512 0a512 512 0 1 1 1024 0 512 512 0 1 1-1024 0ZM643.072 257.024H380.928c-4.096 0-8.192 2.048-10.24 6.144-2.048 4.096-2.048 8.192 0 12.288l131.072 227.328c4.096 8.192 16.384 8.192 20.48 0l131.072-227.328c2.048-4.096 2.048-8.192 0-12.288s-6.144-6.144-10.24-6.144zM401.408 281.6h221.184L512 474.112 401.408 281.6zM512 498.688m-53.248 0a53.248 53.248 0 1 1 106.496 0 53.248 53.248 0 1 1-106.496 0ZM512 433.152c-36.864 0-65.536 28.672-65.536 65.536 0 36.864 28.672 65.536 65.536 65.536 36.864 0 65.536-28.672 65.536-65.536 0-36.864-28.672-65.536-65.536-65.536z m0 104.448c-22.528 0-40.96-18.432-40.96-40.96s18.432-40.96 40.96-40.96 40.96 18.432 40.96 40.96-18.432 40.96-40.96 40.96zM643.072 269.312m-53.248 0a53.248 53.248 0 1 1 106.496 0 53.248 53.248 0 1 1-106.496 0ZM643.072 205.824c-36.864 0-65.536 28.672-65.536 65.536s28.672 65.536 65.536 65.536c36.864 0 65.536-28.672 65.536-65.536s-28.672-65.536-65.536-65.536z m0 104.448c-22.528 0-40.96-18.432-40.96-40.96s18.432-40.96 40.96-40.96 40.96 18.432 40.96 40.96-18.432 40.96-40.96 40.96zM380.928 269.312m-53.248 0a53.248 53.248 0 1 1 106.496 0 53.248 53.248 0 1 1-106.496 0ZM380.928 205.824c-36.864 0-65.536 28.672-65.536 65.536s28.672 65.536 65.536 65.536c36.864 0 65.536-28.672 65.536-65.536s-30.72-65.536-65.536-65.536z m0 104.448c-22.528 0-40.96-18.432-40.96-40.96s18.432-40.96 40.96-40.96 40.96 18.432 40.96 40.96-18.432 40.96-40.96 40.96z"  horiz-adv-x="1024" />

    
    <glyph glyph-name="balance_sel" unicode="&#59195;" d="M512 875.52c270.336 0 491.52-221.184 491.52-491.52S782.336-107.52 512-107.52 20.48 113.664 20.48 384 241.664 875.52 512 875.52m0 20.48C229.376 896 0 666.624 0 384s229.376-512 512-512 512 229.376 512 512S794.624 896 512 896zM643.072 257.024H380.928c-4.096 0-8.192 2.048-10.24 6.144-2.048 4.096-2.048 8.192 0 12.288l131.072 227.328c4.096 8.192 16.384 8.192 20.48 0l131.072-227.328c2.048-4.096 2.048-8.192 0-12.288s-6.144-6.144-10.24-6.144zM401.408 281.6h221.184L512 474.112 401.408 281.6zM512 498.688m-53.248 0a53.248 53.248 0 1 1 106.496 0 53.248 53.248 0 1 1-106.496 0ZM512 433.152c-36.864 0-65.536 28.672-65.536 65.536 0 36.864 28.672 65.536 65.536 65.536 36.864 0 65.536-28.672 65.536-65.536 0-36.864-28.672-65.536-65.536-65.536z m0 104.448c-22.528 0-40.96-18.432-40.96-40.96s18.432-40.96 40.96-40.96 40.96 18.432 40.96 40.96-18.432 40.96-40.96 40.96zM643.072 269.312m-53.248 0a53.248 53.248 0 1 1 106.496 0 53.248 53.248 0 1 1-106.496 0ZM643.072 205.824c-36.864 0-65.536 28.672-65.536 65.536 0 36.864 28.672 65.536 65.536 65.536 36.864 0 65.536-28.672 65.536-65.536 0-36.864-28.672-65.536-65.536-65.536z m0 104.448c-22.528 0-40.96-18.432-40.96-40.96s18.432-40.96 40.96-40.96 40.96 18.432 40.96 40.96-18.432 40.96-40.96 40.96zM380.928 269.312m-53.248 0a53.248 53.248 0 1 1 106.496 0 53.248 53.248 0 1 1-106.496 0ZM380.928 205.824c-36.864 0-65.536 28.672-65.536 65.536 0 36.864 28.672 65.536 65.536 65.536 36.864 0 65.536-28.672 65.536-65.536 0-36.864-30.72-65.536-65.536-65.536z m0 104.448c-22.528 0-40.96-18.432-40.96-40.96s18.432-40.96 40.96-40.96 40.96 18.432 40.96 40.96-18.432 40.96-40.96 40.96z"  horiz-adv-x="1024" />

    
    <glyph glyph-name="temputure_sel" unicode="&#59196;" d="M512 896C229.376 896 0 666.624 0 384s229.376-512 512-512 512 229.376 512 512S794.624 896 512 896z m0-1003.52C241.664-107.52 20.48 113.664 20.48 384S241.664 875.52 512 875.52s491.52-221.184 491.52-491.52-221.184-491.52-491.52-491.52zM606.208 384v24.576H634.88c6.144 0 12.288 6.144 12.288 12.288s-6.144 12.288-12.288 12.288h-28.672v30.72H634.88c6.144 0 12.288 6.144 12.288 12.288s-6.144 12.288-12.288 12.288h-28.672v2.048c0 10.24-2.048 20.48-6.144 28.672H634.88c6.144 0 12.288 6.144 12.288 12.288s-6.144 12.288-12.288 12.288h-40.96c-2.048 0-4.096 0-6.144-2.048-16.384 22.528-45.056 38.912-75.776 38.912-51.2 0-94.208-40.96-94.208-90.112V384c-38.912-20.48-61.44-53.248-61.44-88.064 0-59.392 69.632-108.544 155.648-108.544 86.016 0 155.648 49.152 155.648 108.544 0 34.816-22.528 67.584-61.44 88.064zM512 211.968c-71.68 0-131.072 38.912-131.072 83.968 0 24.576 18.432 49.152 49.152 65.536 8.192 4.096 12.288 12.288 12.288 20.48v108.544c0 36.864 30.72 65.536 69.632 65.536s69.632-28.672 69.632-65.536v-108.544c0-8.192 4.096-16.384 12.288-20.48 30.72-16.384 49.152-40.96 49.152-65.536 0-45.056-59.392-83.968-131.072-83.968zM512 506.88c-6.144 0-12.288-6.144-12.288-12.288v-147.456c0-6.144 6.144-12.288 12.288-12.288s12.288 6.144 12.288 12.288v147.456c0 6.144-6.144 12.288-12.288 12.288z"  horiz-adv-x="1024" />

    
    <glyph glyph-name="temputure_nor" unicode="&#59197;" d="M512 384m-512 0a512 512 0 1 1 1024 0 512 512 0 1 1-1024 0ZM606.208 384v24.576H634.88c6.144 0 12.288 6.144 12.288 12.288s-6.144 12.288-12.288 12.288h-28.672v30.72H634.88c6.144 0 12.288 6.144 12.288 12.288s-6.144 12.288-12.288 12.288h-28.672v2.048c0 10.24-2.048 20.48-6.144 28.672H634.88c6.144 0 12.288 6.144 12.288 12.288s-6.144 12.288-12.288 12.288h-40.96c-2.048 0-4.096 0-6.144-2.048-16.384 22.528-45.056 38.912-75.776 38.912-51.2 0-94.208-40.96-94.208-90.112V384c-38.912-20.48-61.44-53.248-61.44-88.064 0-59.392 69.632-108.544 155.648-108.544 86.016 0 155.648 49.152 155.648 108.544 0 34.816-22.528 67.584-61.44 88.064zM512 211.968c-71.68 0-131.072 38.912-131.072 83.968 0 24.576 18.432 49.152 49.152 65.536 8.192 4.096 12.288 12.288 12.288 20.48v108.544c0 36.864 30.72 65.536 69.632 65.536s69.632-28.672 69.632-65.536v-108.544c0-8.192 4.096-16.384 12.288-20.48 30.72-16.384 49.152-40.96 49.152-65.536 0-45.056-59.392-83.968-131.072-83.968zM512 506.88c-6.144 0-12.288-6.144-12.288-12.288v-147.456c0-6.144 6.144-12.288 12.288-12.288s12.288 6.144 12.288 12.288v147.456c0 6.144-6.144 12.288-12.288 12.288z"  horiz-adv-x="1024" />

    
    <glyph glyph-name="thermalrunaway_sel" unicode="&#59198;" d="M512 896C229.376 896 0 666.624 0 384s229.376-512 512-512 512 229.376 512 512S794.624 896 512 896z m0-1003.52C241.664-107.52 20.48 113.664 20.48 384S241.664 875.52 512 875.52s491.52-221.184 491.52-491.52-221.184-491.52-491.52-491.52zM608.256 396.288c0-36.864-40.96-65.536-40.96-65.536-6.144-4.096-6.144-12.288-2.048-16.384 2.048-4.096 6.144-6.144 10.24-6.144 2.048 0 4.096 0 6.144 2.048 2.048 2.048 51.2 36.864 51.2 86.016 0 28.672-14.336 45.056-26.624 57.344-10.24 12.288-18.432 20.48-18.432 32.768 0 28.672 38.912 49.152 38.912 49.152 6.144 4.096 8.192 10.24 6.144 16.384-4.096 6.144-10.24 8.192-16.384 6.144-2.048-2.048-53.248-26.624-53.248-71.68 0-22.528 12.288-36.864 24.576-49.152 10.24-12.288 20.48-22.528 20.48-40.96zM518.144 396.288c0-36.864-38.912-65.536-40.96-65.536-6.144-4.096-6.144-12.288-2.048-16.384 2.048-4.096 6.144-6.144 10.24-6.144 2.048 0 4.096 0 6.144 2.048 2.048 2.048 51.2 36.864 51.2 86.016 0 28.672-14.336 45.056-26.624 57.344-10.24 12.288-18.432 20.48-18.432 32.768 0 28.672 38.912 49.152 38.912 49.152 6.144 4.096 8.192 10.24 6.144 16.384-4.096 6.144-10.24 8.192-16.384 6.144-4.096 0-55.296-26.624-55.296-71.68 0-22.528 12.288-36.864 24.576-49.152 12.288-12.288 22.528-22.528 22.528-40.96zM425.984 396.288c0-36.864-38.912-65.536-40.96-65.536-6.144-4.096-6.144-12.288-2.048-16.384 2.048-4.096 6.144-6.144 10.24-6.144 2.048 0 4.096 0 6.144 2.048 2.048 2.048 51.2 36.864 51.2 86.016 0 28.672-14.336 45.056-26.624 57.344-10.24 12.288-18.432 20.48-18.432 32.768 0 28.672 38.912 49.152 38.912 49.152 6.144 4.096 8.192 10.24 6.144 16.384-4.096 6.144-10.24 8.192-16.384 6.144-2.048-2.048-53.248-26.624-53.248-71.68 0-22.528 12.288-36.864 24.576-49.152 10.24-12.288 20.48-22.528 20.48-40.96zM665.6 281.6h-307.2c-6.144 0-12.288-6.144-12.288-12.288s6.144-12.288 12.288-12.288h307.2c6.144 0 12.288 6.144 12.288 12.288s-6.144 12.288-12.288 12.288zM665.6 232.448h-307.2c-6.144 0-12.288-6.144-12.288-12.288s6.144-12.288 12.288-12.288h307.2c6.144 0 12.288 6.144 12.288 12.288s-6.144 12.288-12.288 12.288z"  horiz-adv-x="1024" />

    
    <glyph glyph-name="resistance_nor" unicode="&#59199;" d="M512 384m-512 0a512 512 0 1 1 1024 0 512 512 0 1 1-1024 0ZM819.2 396.288h-172.032V465.92c0 6.144-6.144 12.288-12.288 12.288H389.12c-6.144 0-12.288-6.144-12.288-12.288v-69.632H204.8c-6.144 0-12.288-6.144-12.288-12.288s6.144-12.288 12.288-12.288h172.032V302.08c0-6.144 6.144-12.288 12.288-12.288h245.76c6.144 0 12.288 6.144 12.288 12.288v69.632H819.2c6.144 0 12.288 6.144 12.288 12.288s-6.144 12.288-12.288 12.288z m-196.608-81.92H401.408v139.264h221.184v-139.264z"  horiz-adv-x="1024" />

    
    <glyph glyph-name="resistance_sel" unicode="&#59200;" d="M512 896C229.376 896 0 666.624 0 384s229.376-512 512-512 512 229.376 512 512S794.624 896 512 896z m0-1003.52C241.664-107.52 20.48 113.664 20.48 384S241.664 875.52 512 875.52s491.52-221.184 491.52-491.52-221.184-491.52-491.52-491.52zM819.2 396.288h-172.032V465.92c0 6.144-6.144 12.288-12.288 12.288H389.12c-6.144 0-12.288-6.144-12.288-12.288v-69.632H204.8c-6.144 0-12.288-6.144-12.288-12.288s6.144-12.288 12.288-12.288h172.032V302.08c0-6.144 6.144-12.288 12.288-12.288h245.76c6.144 0 12.288 6.144 12.288 12.288v69.632H819.2c6.144 0 12.288 6.144 12.288 12.288s-6.144 12.288-12.288 12.288z m-196.608-81.92H401.408v139.264h221.184v-139.264z"  horiz-adv-x="1024" />

    
    <glyph glyph-name="voltage_nor" unicode="&#59201;" d="M512 384m-512 0a512 512 0 1 1 1024 0 512 512 0 1 1-1024 0ZM643.072 570.368c-6.144 0-12.288-6.144-12.288-12.288v-217.088c0-65.536-53.248-118.784-118.784-118.784-65.536 0-118.784 53.248-118.784 118.784V558.08c0 6.144-6.144 12.288-12.288 12.288s-12.288-6.144-12.288-12.288v-217.088c0-77.824 63.488-143.36 143.36-143.36s143.36 63.488 143.36 143.36V558.08c0 6.144-6.144 12.288-12.288 12.288z"  horiz-adv-x="1024" />

    
    <glyph glyph-name="voltage_sel" unicode="&#59202;" d="M512 896C229.376 896 0 666.624 0 384s229.376-512 512-512 512 229.376 512 512S794.624 896 512 896z m0-1003.52C241.664-107.52 20.48 113.664 20.48 384S241.664 875.52 512 875.52s491.52-221.184 491.52-491.52-221.184-491.52-491.52-491.52zM643.072 570.368c-6.144 0-12.288-6.144-12.288-12.288v-217.088c0-65.536-53.248-118.784-118.784-118.784-65.536 0-118.784 53.248-118.784 118.784V558.08c0 6.144-6.144 12.288-12.288 12.288s-12.288-6.144-12.288-12.288v-217.088c0-77.824 63.488-143.36 143.36-143.36s143.36 63.488 143.36 143.36V558.08c0 6.144-6.144 12.288-12.288 12.288z"  horiz-adv-x="1024" />

    
    <glyph glyph-name="notice" unicode="&#59203;" d="M0 384c0-282.77 229.23-512 512-512s512 229.23 512 512c0 282.77-229.23 512-512 512-282.77 0-512-229.23-512-512zM446.171 610.743c0-36.356 29.472-65.829 65.829-65.829s65.829 29.472 65.829 65.829c0 36.356-29.472 65.829-65.829 65.829-36.356 0-65.829-29.472-65.829-65.829zM512 449.829c29.257 0 58.514-21.943 58.514-58.514v-256c0-29.257-21.943-58.514-58.514-58.514s-58.514 21.943-58.514 58.514v263.314c0 29.257 29.257 51.2 58.514 51.2z"  horiz-adv-x="1024" />

    
    <glyph glyph-name="diagnose" unicode="&#59204;" d="M1000.727 630.691h-55.855v116.364c0 32.582-27.927 60.509-60.509 60.509h-698.182c-32.582 0-60.509-27.927-60.509-60.509v-612.073c0-32.582 27.927-60.509 60.509-60.509h698.182c32.582 0 60.509 27.927 60.509 60.509v116.364h55.855c6.982 0 13.964 6.982 13.964 13.964v351.418c0 6.982-6.982 13.964-13.964 13.964zM986.764 276.945h-55.855c-6.982 0-13.964-6.982-13.964-13.964v-130.327c0-18.618-13.964-32.582-32.582-32.582h-698.182c-18.618 0-32.582 13.964-32.582 32.582v614.4c0 18.618 13.964 32.582 32.582 32.582h698.182c18.618 0 32.582-13.964 32.582-32.582v-130.327c0-6.982 6.982-13.964 13.964-13.964h55.855v-325.818zM814.545-11.636h-744.727c-18.618 0-32.582 13.964-32.582 32.582v602.764c0 6.982-6.982 13.964-13.964 13.964s-13.964-6.982-13.964-13.964v-602.764c0-32.582 27.927-60.509 60.509-60.509h744.727c6.982 0 13.964 6.982 13.964 13.964s-6.982 13.964-13.964 13.964zM721.455 453.818h-172.218v172.218c0 6.982-6.982 13.964-13.964 13.964s-13.964-6.982-13.964-13.964v-172.218h-172.218c-6.982 0-13.964-6.982-13.964-13.964s6.982-13.964 13.964-13.964h172.218v-172.218c0-6.982 6.982-13.964 13.964-13.964s13.964 6.982 13.964 13.964v172.218h172.218c6.982 0 13.964 6.982 13.964 13.964s-6.982 13.964-13.964 13.964z"  horiz-adv-x="1024" />

    
    </font>
</defs>
</svg>
